<?xml version="1.0" encoding="UTF-8"?>
<svg id="Layer_2" data-name="Layer 2" xmlns="http://www.w3.org/2000/svg" viewBox="0 0 80.81 22.41">
  <defs>
    <style>
      .cls-1 {
        fill: #f5e6df;
      }
    </style>
  </defs>
  <g id="OBJECTS">
    <g>
      <g>
        <path class="cls-1" d="M7.02,10.37c5.73-2.49,9.26,4.9,5.28,8.93-2.22,2.25-5.93,2.52-8.61.97C.87,18.69-.47,15.43.15,12.29,1.28,5.72,7.73,2.53,13.9,2.77c11.34.18,16.39,6.71,24.38,13.18,3.61,2.89,7.88,4.75,12.49,5.26,4.54.62,9.3-.1,13.28-2.43,1.97-1.16,3.79-2.68,5.16-4.52.06-.09.18-.12.27-.05.08.06.1.17.04.25-5.59,8.27-17.06,9.7-25.82,6.08-6.64-2.72-11.17-8.58-16.96-12.53-5.4-3.74-13.27-5.47-19.48-2.94-2.05.88-3.86,2.34-4.98,4.28-1.69,2.8-1.96,6.78.55,9.16,3.13,3.3,9.66,2.24,10.47-2.59.68-3.59-2.6-6.81-6.12-5.22-.09.04-.2,0-.25-.09-.04-.09,0-.2.08-.25h0Z"/>
        <path class="cls-1" d="M9.09,10.81c.27.67-.23,1.5-1.12,1.87-.89.37-1.84.12-2.11-.55-.27-.67.23-1.5,1.12-1.87.89-.37,1.84-.12,2.11.55Z"/>
      </g>
      <g>
        <path class="cls-1" d="M73.78,12.04c-5.73,2.49-9.26-4.9-5.28-8.93,2.22-2.25,5.93-2.52,8.61-.97,2.82,1.58,4.16,4.84,3.54,7.98-1.13,6.57-7.58,9.76-13.75,9.53-11.34-.18-16.39-6.71-24.38-13.18-3.61-2.89-7.88-4.75-12.49-5.26-4.54-.62-9.3.1-13.28,2.43-1.97,1.16-3.79,2.68-5.16,4.52-.06.09-.18.12-.27.05-.08-.06-.1-.17-.04-.25C16.88-.32,28.35-1.75,37.1,1.87c6.64,2.72,11.17,8.58,16.96,12.53,5.4,3.74,13.27,5.47,19.48,2.94,2.05-.88,3.86-2.34,4.98-4.28,1.69-2.8,1.96-6.78-.55-9.16-3.13-3.3-9.66-2.24-10.47,2.59-.68,3.59,2.6,6.81,6.12,5.22.09-.04.2,0,.25.09.04.09,0,.2-.08.25h0Z"/>
        <path class="cls-1" d="M71.72,11.6c-.27-.67.23-1.5,1.12-1.87.89-.37,1.84-.12,2.11.55.27.67-.23,1.5-1.12,1.87-.89.37-1.84.12-2.11-.55Z"/>
      </g>
    </g>
  </g>
</svg>