<?xml version="1.0" encoding="UTF-8"?>
<svg id="Layer_2" data-name="Layer 2" xmlns="http://www.w3.org/2000/svg" viewBox="0 0 180.27 13.29">
  <defs>
    <style>
      .cls-1 {
        fill: #f5e6df;
      }
    </style>
  </defs>
  <g id="OBJECTS">
    <path class="cls-1" d="M176.67,2.93l-2.86,1.38h-2.45v-.67c0-.26-.21-.47-.47-.47s-.47.21-.47.47v.67h-.65c-.14-.32-.46-.55-.83-.55s-.69.23-.83.55h-.66v-1.33c0-.43-.35-.77-.77-.77s-.77.35-.77.77v1.33h-49.91c-.05,0-.11,0-.16,0h-.07c-.26.01-.52.03-.78.08-.17.02-.33.07-.49.1-.2-.35-.5-.56-.77-.48-.24.08-.37.39-.35.75-2.05.66-3.83,2.02-5.23,3.67.67-2.64-.27-5.74-2.89-7.16-.76-.44-1.53-.63-2.29-.66-.11-.36-.33-.61-.6-.61-.28,0-.53.28-.63.69-3.38.7-5.77,4.8-2.64,7.76,0,0,.01.02.02.03.71.82,1.79,1.06,2.41.53.62-.53.54-1.63-.18-2.46-.71-.82-1.79-1.06-2.41-.53-.1.09-.18.2-.24.31-.63-1.99.82-4.26,3.05-4.76.11.39.34.66.62.66.3,0,.55-.32.64-.76,3.14.15,5.33,3.78,4.51,6.76-.78,3.47-4.69,4.79-7.92,4.47-3.1-.22-6.03-1.58-8.53-3.45.18-.22.3-.49.3-.79,0-.52-.31-.95-.75-1.15l.04-.06c0-1.97,1.11-2.86,2.21-2.76,1.41.14,1.94,1.75,1.19,2.76,1.79-.09,2.26-2.91.17-3.72-1.43-.56-2.83-.07-3.56.65.07-.75.26-1.85.74-2.02.75-.26.98.51.98.51.13-.68-.6-1.65-1.6-1.35l-.66-1.32-.66,1.32c-1-.3-1.73.67-1.6,1.35,0,0,.23-.77.98-.51.48.17.67,1.26.75,2.02-.74-.72-2.13-1.21-3.56-.65-2.09.81-1.62,3.63.17,3.72-.75-1-.23-2.62,1.19-2.76,1.1-.11,2.21.79,2.21,2.76l.02.04c-.46.19-.78.64-.78,1.17,0,.32.13.59.32.82-2.49,1.86-5.41,3.21-8.5,3.43-3.23.31-7.13-1-7.92-4.47-.82-2.98,1.37-6.61,4.51-6.76.09.44.34.76.64.76.28,0,.51-.27.62-.66,2.23.5,3.68,2.76,3.05,4.76-.06-.12-.14-.23-.24-.31-.62-.53-1.69-.3-2.41.53s-.79,1.92-.18,2.46c.62.53,1.69.3,2.41-.53,0,0,.01-.02.02-.03,3.13-2.95.74-7.06-2.64-7.76-.1-.4-.35-.69-.63-.69-.26,0-.48.25-.6.61-.76.03-1.53.23-2.29.66-2.62,1.43-3.56,4.52-2.89,7.16-1.4-1.65-3.18-3.01-5.23-3.67.03-.37-.1-.67-.35-.75-.26-.09-.57.12-.77.48-.16-.03-.32-.08-.49-.1-.26-.04-.52-.07-.78-.07h0s-.07,0-.07,0c-.05,0-.11,0-.16,0H14.36v-1.33c0-.43-.35-.77-.77-.77s-.77.35-.77.77v1.33h-.66c-.14-.32-.46-.55-.83-.55s-.69.23-.83.55h-.65v-.67c0-.26-.21-.47-.47-.47s-.47.21-.47.47v.67h-2.45l-2.86-1.38-3.6,1.74,3.6,1.74,2.86-1.38h2.45v.67c0,.26.21.47.47.47s.47-.21.47-.47v-.67h.65c.14.32.46.55.83.55s.69-.23.83-.55h.66v1.33c0,.43.35.77.77.77s.77-.35.77-.77v-1.33h47.3c-1.03.62-1.76,1.64-1.81,3.03-.24,2.78,2.93,4.98,5.28,3.11.88-.66,1.19-1.89.85-2.91-.05-.24-.16-.49-.33-.73-.51-.71-1.35-.97-1.88-.59-.53.38-.54,1.26-.03,1.97.38.53.94.81,1.42.76-.43,1.11-2.06,1.75-3.25.95-1.73-1.08-1.56-4.01.23-4.97,1.14-.5,2.3-.6,3.43-.42,0,.31.12.57.34.64.24.08.53-.09.73-.4,2.6.8,4.95,2.95,6.43,5.11,0,0,.02-.01.03-.02.58.8,1.37,1.46,2.38,1.88,4.72,2.07,10.11.1,13.97-2.91.19.12.41.2.65.2s.48-.09.68-.22c3.86,3.02,9.26,5,13.99,2.93,1.01-.42,1.79-1.08,2.38-1.88,0,0,.03.02.03.02,1.47-2.16,3.83-4.31,6.43-5.11.2.31.49.48.73.4.22-.07.33-.33.34-.64,1.13-.17,2.29-.07,3.43.42,1.79.96,1.96,3.89.23,4.97-1.19.81-2.82.17-3.25-.95.48.05,1.04-.23,1.42-.76.51-.71.49-1.59-.03-1.97-.53-.38-1.37-.12-1.88.59-.17.23-.27.48-.33.73-.34,1.02-.03,2.25.85,2.91,2.35,1.86,5.52-.33,5.28-3.11-.05-1.39-.78-2.41-1.81-3.03h47.3v1.33c0,.43.35.77.77.77s.77-.35.77-.77v-1.33h.66c.14.32.46.55.83.55s.69-.23.83-.55h.65v.67c0,.26.21.47.47.47s.47-.21.47-.47v-.67h2.45l2.86,1.38,3.6-1.74-3.6-1.74Z"/>
  </g>
</svg>