<?xml version="1.0" encoding="UTF-8"?>
<svg id="Layer_2" data-name="Layer 2" xmlns="http://www.w3.org/2000/svg" viewBox="0 0 90.47 32.8">
  <defs>
    <style>
      .cls-1 {
        fill: #f5e6df;
      }
    </style>
  </defs>
  <g id="OBJECTS">
    <g>
      <g>
        <path class="cls-1" d="M73.95,12.38c-8.1.1-11.51,8.82-7.3,15.24,4.13,6.41,12.87,6.6,18.49,2.06,5.77-4.55,6.72-12.76,3.46-19.09-2.1-4.19-6.02-7.33-10.44-8.79-2.19-.7-4.54-1.08-6.82-1.1-4.57-.15-9.2.52-13.47,2.18-8.61,3.21-15.08,9.96-22.06,15.54-6.66,5.36-15.33,10.05-24,7.29C3.51,23.29-2.26,12.9,3.78,5.52,7.71.49,16.37-.83,20.69,4.4c2.83,3.19,3.31,8.63.12,11.76-1.5,1.56-3.68,2.45-5.87,2.36-.11,0-.2.08-.21.19,0,.11.08.2.19.21,2.3.16,4.65-.72,6.3-2.35,3.51-3.31,3.13-9.2.12-12.73C19.14,1.07,15.47-.33,11.97.07c-3.49.28-6.85,2-9.1,4.71-6.71,8.11-.74,19.54,8.51,22.31,14.23,4.36,25.73-7.93,35.75-16.02,5.17-4.15,11.04-7.45,17.62-8.46,6.33-.96,13.49-.65,18.59,3.67,9.06,7.4,7.58,22.53-4.68,25.27-4.28.93-8.84-.68-11.3-4.37-4.06-5.95-.96-14.09,6.6-14.37.11,0,.2-.09.2-.2,0-.11-.09-.2-.2-.2h0Z"/>
        <path class="cls-1" d="M12.98,17.45c0,.93,1.01,1.68,2.25,1.68s2.25-.75,2.25-1.68-1.01-1.68-2.25-1.68-2.25.75-2.25,1.68Z"/>
        <path class="cls-1" d="M76.16,13.87c0,.93-1.01,1.68-2.25,1.68s-2.25-.75-2.25-1.68,1.01-1.68,2.25-1.68,2.25.75,2.25,1.68Z"/>
      </g>
      <path class="cls-1" d="M36.77,18.48c3.56-2.97,4.63-8.99,1.16-12.44-2.23-2.37-6.33-2.4-8.61-.08-2.52,2.22-1.88,6.82,1.32,8.06,1.52.6,3.37.14,4.41-1.09.23-.26-.16-.61-.4-.36-3.03,3-7.22-.73-5.89-4.35.71-1.96,2.83-3.22,4.88-3.18,2.91-.03,5.18,2.49,5.58,5.27.5,2.85-.72,5.8-2.81,7.77-.25.23.11.63.36.39h0Z"/>
      <path class="cls-1" d="M46.37,11.97c2.27-1.75,5.36-2.49,8.1-1.56,2.66.83,4.81,3.43,4.32,6.29-.27,2.01-1.82,3.91-3.85,4.3-3.75.75-6.79-3.92-3.39-6.45.29-.19,0-.63-.29-.45-1.38.83-2.13,2.59-1.77,4.19.74,3.37,5.21,4.72,7.81,2.56,2.66-1.91,3.26-5.98,1.24-8.57-1.87-2.58-5.41-3.54-8.42-2.8-1.51.36-2.9,1.09-4.07,2.07-.26.22.06.62.33.42h0Z"/>
      <path class="cls-1" d="M35.63,11.33c-.35-.49-1.16-.5-1.81-.04-.65.47-.9,1.24-.55,1.73.35.49,1.16.5,1.81.04.65-.47.9-1.24.55-1.73Z"/>
      <path class="cls-1" d="M50.52,15.79c.35.49,1.16.5,1.81.04.65-.47.9-1.24.55-1.73-.35-.49-1.16-.5-1.81-.04-.65.47-.9,1.24-.55,1.73Z"/>
    </g>
  </g>
</svg>