<?xml version="1.0" encoding="UTF-8"?>
<svg id="Layer_2" data-name="Layer 2" xmlns="http://www.w3.org/2000/svg" viewBox="0 0 63.34 28.79">
  <defs>
    <style>
      .cls-1 {
        fill: #f5e6df;
      }
    </style>
  </defs>
  <g id="OBJECTS">
    <g>
      <path class="cls-1" d="M.03,22.46c.06-.13.23-.18.35-.12,5.3,2.73,9.85,3.83,14.23,2.12.02-.03.04-.07.08-.09,5.66-2.67,7.84-10.27,4.03-15.32-1.83-2.42-4.97-3.54-7.94-3.07.1.1.18.22.23.37.18.6-.32,1.29-1.12,1.53-.8.25-1.6-.04-1.79-.64-.18-.6.32-1.29,1.12-1.53.11-.03.23-.06.34-.07,2.2-.85,4.76-.74,6.9.29,4.95,2.35,6.45,9.05,4.02,13.71-.3.61-.65,1.18-1.06,1.71.41-.38.82-.78,1.24-1.21,5.43-5.34,9.39-12.43,15.94-16.6C40.99.72,46.5-.87,51.68.5c4.49,1.17,8.52,4.31,10.39,8.59,3.72,8.02-1,18.96-10.33,19.66-3.95.32-8.12-1.49-10.31-4.83-2.1-3.19-1.95-7.62.32-10.67.05-.1.08-.2.15-.3.48-.69,1.29-.96,1.8-.6.51.36.54,1.21.06,1.9-.48.69-1.29.96-1.8.6-.15-.1-.24-.26-.31-.43-1.52,2.81-1.41,6.43.41,9.09,2.07,3.05,6,4.64,9.62,4.3,5.47-.42,9.38-4.96,10.33-10.15.53-3.02.01-6.18-1.41-8.9-1.9-3.5-5.36-6.06-9.2-7.04-1.3-.34-2.62-.47-3.94-.44,4.2.7,8.02,3.34,10.01,7.46.8,1.65,1.14,3.46,1.05,5.27.04.12.06.26.05.4-.01.56-.36,1-.78.99-.41-.01-.74-.47-.73-1.02.01-.56.36-1,.78-.99.06,0,.11.03.17.05,0-1.54-.34-3.07-1.02-4.47-1.19-2.45-3.05-4.37-5.25-5.63-3.61-2.06-8.04-1.95-11.8-.17-.91.43-1.79.93-2.62,1.47-4.22,2.67-7.44,6.85-10.65,10.63-3.35,3.87-6.67,8.17-11.61,10.15-5.02,2.01-10.52-.08-14.92-2.62-.12-.07-.17-.22-.11-.34Z"/>
      <path class="cls-1" d="M23.93,12.03c.53-3.56,0-7.21-1.47-10.4-.13-.37.06-.78.43-.91.37-.13.78.06.91.43,1.28,3.54,1.48,7.4.65,10.98-.07.32-.56.22-.51-.1Z"/>
    </g>
  </g>
</svg>