<?xml version="1.0" encoding="UTF-8"?>
<svg id="Layer_2" data-name="Layer 2" xmlns="http://www.w3.org/2000/svg" viewBox="0 0 143.07 28.06">
  <defs>
    <style>
      .cls-1 {
        fill: #f5e6df;
      }
    </style>
  </defs>
  <g id="OBJECTS">
    <g>
      <g>
        <g>
          <path class="cls-1" d="M83.48,9.84c5.97,3.27,1.13,11.25-4.76,9.39-5.52-1.8-6.62-9.05-2.2-12.68,4.09-3.57,10.1-2.58,14.3.23,8.49,4.76,20.31,13.11,30.34,10.45,3.36-.93,6.48-3.59,6.95-7.16.78-4.95-4.47-9.03-9.06-7.01-3.25,1.35-4.34,6.4-1.24,8.5.94.66,2.17.9,3.3.65.15-.03.3.06.34.21.03.15-.06.3-.21.34-1.28.31-2.68.06-3.78-.67-2.31-1.47-2.78-4.74-1.55-7.07,1.83-3.77,7.17-4.23,10.24-1.77,6.03,5.02,2.03,13.16-4.71,14.94-10.54,2.89-22.3-5.59-31.1-10.58-3.88-2.63-9.46-3.66-13.25-.38-3.95,3.22-3.01,9.6,1.87,11.28,5.11,1.7,9.47-5.23,4.29-8.14-.32-.16-.11-.66.24-.51h0Z"/>
          <path class="cls-1" d="M79.51.53c6.65-2.23,14.94,3.07,20.85,5.84,3.26,1.65,6.51,3.31,9.85,4.76,6.62,2.86,13.74,5.05,21.01,4.56,3.46-.23,7.31-.9,9.66-3.62,1.61-1.88,2.04-5.14.04-6.87-1.92-1.67-5.37-1.24-6.51,1.15-.77,1.49-.47,3.6,1.02,4.5.13.08.17.24.09.37-.08.13-.25.17-.38.09-.84-.51-1.46-1.4-1.65-2.37-.73-3.1,2.16-5.91,5.23-5.46,4.65.46,5.54,5.98,2.83,9.15-2.53,3-6.6,3.74-10.28,4-11.2.79-21.71-4.47-31.33-9.48-5.66-2.73-13.94-8.13-20.26-6.12-.14.05-.3-.02-.35-.16-.05-.14.02-.29.16-.34h0Z"/>
          <ellipse class="cls-1" cx="120.61" cy="11.49" rx="1.92" ry="1.43"/>
          <path class="cls-1" d="M136.85,11.46c-.43.49-1.3.43-1.96-.15s-.84-1.43-.42-1.92c.43-.49,1.3-.43,1.96.15.66.57.84,1.43.42,1.92Z"/>
          <path class="cls-1" d="M76.11,23.06c-1.67-.55-3.33-.74-4.6-2.21l-1.02,1.28c-1.08,1.36-1.08,3.29,0,4.65l1.02,1.28,1.02-1.28c.44-.55.69-1.19.77-1.85.12.06.24.12.36.16,1.59.69,3.88.23,4.52-1.55-.92-.17-1.52-.32-2.07-.47Z"/>
          <polygon class="cls-1" points="71.51 16.78 70.43 18.4 71.51 20.03 72.59 18.4 71.51 16.78"/>
          <polygon class="cls-1" points="71.51 .5 69.89 3.45 71.51 6.4 73.13 3.45 71.51 .5"/>
        </g>
        <g>
          <path class="cls-1" d="M59.79,10.35c-5.2,2.92-.8,9.85,4.29,8.14,4.86-1.68,5.82-8.06,1.87-11.28-3.8-3.28-9.37-2.25-13.25.38-6.37,3.75-12.74,7.84-19.87,10.09-4.75,1.52-10.39,1.75-14.71-1.13-3.23-2.12-5.21-6.5-3.6-10.23,1.46-3.74,6.13-5.71,9.81-4.02,3.75,1.59,4.85,7.44,1.25,9.77-1.1.73-2.51.99-3.78.67-.15-.04-.24-.19-.21-.34.04-.15.19-.24.34-.21,1.13.26,2.36,0,3.3-.65,1.99-1.32,2.32-4.18,1.21-6.18-1.67-3.27-6.32-3.62-9.03-1.44-5.37,4.56-1.58,11.75,4.46,13.29,5.95,1.65,12.06-.75,17.44-3.26,4.43-2.11,8.63-4.7,12.9-7.19,4.2-2.81,10.21-3.8,14.3-.23,4.41,3.63,3.33,10.88-2.2,12.68-5.92,1.86-10.72-6.14-4.76-9.39.32-.15.58.35.24.51h0Z"/>
          <path class="cls-1" d="M63.33,1.04c-6.31-2.01-14.61,3.4-20.26,6.12-6.47,3.37-13.09,6.73-20.3,8.47C15.73,17.52-1.26,18.1.07,7.14c1.43-5.83,10.56-4.3,9.46,1.82-.19.98-.81,1.86-1.66,2.37-.13.08-.29.04-.37-.09-.08-.13-.04-.29.09-.37,1.49-.91,1.79-3.01,1.02-4.5-1.13-2.39-4.59-2.82-6.51-1.15-2,1.74-1.57,5,.04,6.87,2.35,2.72,6.2,3.39,9.66,3.62,7.27.5,14.39-1.7,21.01-4.56,3.34-1.46,6.59-3.11,9.85-4.76,5.91-2.78,14.2-8.08,20.85-5.84.14.05.21.21.16.35-.05.14-.21.21-.35.16h0Z"/>
          <path class="cls-1" d="M20.49,11.49c0,.79.86,1.43,1.92,1.43s1.92-.64,1.92-1.43-.86-1.43-1.92-1.43-1.92.64-1.92,1.43Z"/>
          <path class="cls-1" d="M6.18,11.46c.43.49,1.3.43,1.96-.15.66-.57.84-1.43.42-1.92-.43-.49-1.3-.43-1.96.15-.66.57-.84,1.43-.42,1.92Z"/>
          <path class="cls-1" d="M66.91,23.06c1.67-.55,3.33-.74,4.6-2.21l1.02,1.28c1.08,1.36,1.08,3.29,0,4.65l-1.02,1.28-1.02-1.28c-.44-.55-.69-1.19-.77-1.85-.12.06-.24.12-.36.16-1.59.69-3.88.23-4.52-1.55.92-.17,1.52-.32,2.07-.47Z"/>
          <polygon class="cls-1" points="71.51 16.78 72.59 18.4 71.51 20.03 70.43 18.4 71.51 16.78"/>
          <polygon class="cls-1" points="71.51 .5 73.13 3.45 71.51 6.4 69.89 3.45 71.51 .5"/>
        </g>
      </g>
      <path class="cls-1" d="M71.51,7.65c.5,2.51.49,5.04,0,7.55-.49-2.51-.5-5.04,0-7.55h0Z"/>
    </g>
  </g>
</svg>