<?xml version="1.0" encoding="UTF-8"?>
<svg id="Layer_2" data-name="Layer 2" xmlns="http://www.w3.org/2000/svg" viewBox="0 0 76.85 63.76">
  <defs>
    <style>
      .cls-1 {
        fill: #f5e6df;
      }
    </style>
  </defs>
  <g id="OBJECTS">
    <path class="cls-1" d="M71.33,28.77c-6-.19-11.85,1.3-17.48,3.31-2.21-.88-4.36-1.89-6.45-3.04-.51-.27-1.01-.56-1.51-.86,2.5-1.46,5.05-2.81,7.78-3.77-2.98.54-5.7,2.01-8.35,3.42-2.06-1.26-4.04-2.65-6.04-4,1.22-.79,2.47-1.55,3.76-2.23.74-.4,1.5-.78,2.26-1.15,6.52,2.92,14.38,4.43,19.35,2.72,2.23-.73,3.73-3.13,2.12-5.23-2.34-2.65-6.37-2.55-9.51-2.28-4.21.5-8.22,1.89-12,3.71-.95-.43-1.88-.87-2.8-1.35-1.16-.62-2.28-1.34-3.31-2.15.73-.62,1.39-1.26,1.93-1.9,4.15-4.82,2.72-10.84-2.61-13.96-5.34,3.09-6.78,9.17-2.63,13.98.55.65,1.21,1.29,1.95,1.92-1.03.81-2.14,1.52-3.3,2.14-.94.5-1.91.96-2.89,1.4-3.76-1.8-7.74-3.2-11.93-3.7-3.12-.27-7.12-.38-9.44,2.24-1.59,2.05-.07,4.43,2.09,5.12,5,1.73,12.89.2,19.41-2.73.75.37,1.5.74,2.23,1.14,1.28.67,2.51,1.42,3.71,2.2-2.04,1.37-4.05,2.79-6.15,4.06-2.62-1.39-5.31-2.84-8.25-3.37,2.7.95,5.21,2.28,7.68,3.71-.48.28-.97.56-1.46.83-2.07,1.14-4.22,2.15-6.41,3.02-5.62-2.01-11.47-3.5-17.47-3.3-2.59.06-6.68,1.44-5.34,4.84,2.58,4.07,11.1,2.62,15.16,1.82,2.66-.59,5.27-1.4,7.8-2.39,2.56.91,5.08,1.95,7.55,3.09-3.17,1.58-6.46,2.88-9.98,3.56,3.71-.37,7.2-1.68,10.55-3.29,1.17.55,2.34,1.12,3.49,1.71.9.46,1.8.9,2.7,1.34-2.85,1.35-5.73,2.64-8.66,3.79-4.51-1.56-9.37-2.22-13.68-2.02-2.36.17-6.53,1.06-5.81,4.27,1.29,3.67,8.27,1.71,11.1,1.12,2.87-.74,5.66-1.68,8.42-2.72,3.36,1.16,6.51,2.82,9.11,5.13-.91.86-1.74,1.78-2.46,2.79-2.81,4.06-1.75,9.9,2.9,12.04,4.64-2.13,5.7-8,2.88-12.03-.71-.99-1.54-1.91-2.43-2.76,2.58-2.29,5.7-3.94,9.03-5.09,2.78,1.05,5.6,1.97,8.48,2.72,2.84.59,9.9,2.58,11.2-1.18.74-3.27-3.48-4.21-5.89-4.37-4.29-.19-9.13.47-13.63,2.03-2.97-1.16-5.88-2.47-8.77-3.84,2.06-1,4.12-2,6.19-2.96,3.37,1.63,6.88,2.95,10.61,3.32-3.54-.68-6.84-1.99-10.02-3.58,2.5-1.15,5.03-2.23,7.6-3.17,2.54,1,5.15,1.81,7.81,2.4,3.96.79,12.55,2.22,15.05-1.77,1.33-3.29-2.75-4.66-5.26-4.7ZM57.37,16.64c2.85-.3,8.87-.33,9.1,3.37-.71,3.42-6.75,3.07-9.57,2.77-3.57-.46-7.08-1.5-10.42-2.89,3.48-1.6,7.13-2.81,10.9-3.25ZM36.55,13.39c-3.62-4.17-2.63-9.39,1.92-12.32,4.56,2.9,5.55,8.19,1.94,12.33-.58.68-1.23,1.3-1.92,1.89-.69-.59-1.36-1.22-1.94-1.91ZM20.05,22.84c-2.8.31-8.97.65-9.65-2.82.23-3.77,6.26-3.77,9.18-3.46,3.83.45,7.54,1.68,11.06,3.31-3.39,1.44-6.96,2.5-10.59,2.98ZM34.33,20.83c-.55-.3-1.12-.59-1.68-.88,2.17-1.04,4.16-2.24,5.8-3.52,1.61,1.26,3.56,2.44,5.69,3.48-.53.27-1.05.54-1.57.82-1.44.76-2.83,1.62-4.19,2.52-1.32-.86-2.65-1.69-4.05-2.43ZM44.54,28.26c-2.04,1.1-4.05,2.29-6.07,3.48-1.98-1.17-3.96-2.34-5.97-3.43,2.06-1.28,4.04-2.67,6.06-4.01,1.99,1.32,3.95,2.69,5.98,3.95ZM15.23,34.42c-3.63.74-11.75,2.1-14.14-1.3-1.28-4.99,9.3-3.49,12.15-2.94,2.91.56,5.78,1.33,8.59,2.27-2.16.8-4.36,1.47-6.6,1.96ZM28.21,33.95c-1.25-.51-2.52-1.01-3.8-1.49,1.89-.79,3.74-1.68,5.54-2.66.66-.35,1.31-.73,1.95-1.12,1.96,1.16,3.89,2.35,5.88,3.47-2.01,1.18-4.02,2.35-6.08,3.42-1.16-.55-2.32-1.09-3.49-1.62ZM20.34,45.91c-2.52.52-9.16,2.39-10.35-.67-.6-3.83,6.49-3.64,9.08-3.5,2.94.28,5.99.84,8.92,1.76-2.5.94-5.04,1.77-7.66,2.41ZM40.87,52.03c2.61,3.84,1.73,8.85-2.4,11.17-4.12-2.32-5-7.35-2.38-11.16.72-.98,1.53-1.87,2.41-2.69.86.82,1.67,1.7,2.38,2.68ZM57.88,41.8c2.49-.14,9.61-.3,9,3.41-1.15,2.96-7.73,1.14-10.25.61-2.54-.63-5.02-1.43-7.46-2.34,2.87-.88,5.84-1.41,8.71-1.68ZM46.96,43.49c-3.16,1.22-6.1,2.9-8.51,5.06-2.45-2.18-5.44-3.88-8.67-5.09,1.78-.69,3.55-1.42,5.29-2.18,1.09-.51,2.17-1.03,3.25-1.55,2.83,1.36,5.71,2.63,8.63,3.76ZM38.57,38.87c-2.1-1-4.2-2.02-6.3-3.02,1.83-.92,3.63-1.91,5.4-2.88.27-.14.53-.29.79-.44.26.14.53.3.79.44,1.8.98,3.63,2,5.5,2.93-2.07.98-4.13,1.99-6.19,2.97ZM48.77,34.04c-1.15.52-2.28,1.05-3.42,1.59-2.09-1.08-4.14-2.27-6.18-3.47,2.01-1.13,3.98-2.35,5.97-3.52.63.38,1.26.74,1.9,1.09,1.87,1.02,3.79,1.94,5.75,2.75-1.36.5-2.7,1.03-4.03,1.57ZM75.94,33.16c-2.42,3.47-10.54,2.1-14.24,1.35-2.34-.52-4.64-1.22-6.88-2.06,2.88-1.01,5.83-1.83,8.88-2.36,2.82-.57,13.65-2.06,12.25,3.07Z"/>
  </g>
</svg>