<?xml version="1.0" encoding="UTF-8"?>
<svg id="Layer_2" data-name="Layer 2" xmlns="http://www.w3.org/2000/svg" viewBox="0 0 5.45 184.79">
  <defs>
    <style>
      .cls-1 {
        fill: #f5e6df;
      }
    </style>
  </defs>
  <g id="OBJECTS">
    <path class="cls-1" d="M1.17,3.22l1.23,2.56v2.19h-.6c-.23,0-.42.19-.42.42s.19.42.42.42h.6v.58c-.29.12-.49.41-.49.74s.2.62.49.74v.59h-1.19c-.38,0-.69.31-.69.69s.31.69.69.69h1.19v52.66l-1.98,4.1,1.98,4.1v2.66h-.6c-.23,0-.42.19-.42.42s.19.42.42.42h.6v3.14h-1.19c-.38,0-.69.31-.69.69s.31.69.69.69h1.19v3.71l-1.55,3.21c-.57,1.18-.86,2.47-.86,3.75s.29,2.57.86,3.75l1.55,3.21v3.71h-1.19c-.38,0-.69.31-.69.69s.31.69.69.69h1.19v3.14h-.6c-.23,0-.42.19-.42.42s.19.42.42.42h.6v2.66l-1.98,4.1,1.98,4.1v52.66h-1.19c-.38,0-.69.31-.69.69s.31.69.69.69h1.19v.59c-.29.12-.49.41-.49.74s.2.62.49.74v.58h-.6c-.23,0-.42.19-.42.42s.19.42.42.42h.6v2.19l-1.23,2.56,1.55,3.22,1.55-3.22-1.23-2.56v-2.19h.6c.23,0,.42-.19.42-.42s-.19-.42-.42-.42h-.6v-.58c.29-.12.49-.41.49-.74s-.2-.62-.49-.74v-.59h1.19c.38,0,.69-.31.69-.69s-.31-.69-.69-.69h-1.19v-52.66l1.98-4.1-1.98-4.1v-2.66h.6c.23,0,.42-.19.42-.42s-.19-.42-.42-.42h-.6v-3.14h1.19c.38,0,.69-.31.69-.69s-.31-.69-.69-.69h-1.19v-3.71l1.55-3.21c.57-1.18.86-2.47.86-3.75s-.29-2.56-.86-3.75l-1.55-3.21v-3.71h1.19c.38,0,.69-.31.69-.69s-.31-.69-.69-.69h-1.19v-3.14h.6c.23,0,.42-.19.42-.42s-.19-.42-.42-.42h-.6v-2.66l1.98-4.1-1.98-4.1V12.83h1.19c.38,0,.69-.31.69-.69s-.31-.69-.69-.69h-1.19v-.59c.29-.12.49-.41.49-.74s-.2-.62-.49-.74v-.58h.6c.23,0,.42-.19.42-.42s-.19-.42-.42-.42h-.6v-2.19l1.23-2.56L2.72,0l-1.55,3.22Z"/>
  </g>
</svg>