<?xml version="1.0" encoding="UTF-8"?>
<svg id="Layer_2" data-name="Layer 2" xmlns="http://www.w3.org/2000/svg" viewBox="0 0 88.67 88.67">
  <defs>
    <style>
      .cls-1 {
        fill: #f5e6df;
      }
    </style>
  </defs>
  <g id="OBJECTS">
    <g>
      <path class="cls-1" d="M47.76,3.02c8.16,4.89,12.01,14.92,9.78,24.05-.18.76-.49,1.57-.71,2.32-.33.71-.61,1.53-.98,2.21-.35.71-.75,1.39-1.18,2.04l4.01-4.01,1.36-4.96,4.96-1.36.28-.28c3.74-5.26,3.2-12.75-1.56-17.16-1.47-1.47-3.39-2.45-5.49-2.88-.13-.03-.22-.16-.19-.29.02-.12.13-.2.24-.2,2.25,0,4.56.88,6.29,2.41,3.59,2.94,5.25,7.97,4.25,12.49-.25,1.17-.68,2.3-1.25,3.34l2.33-2.33s.01-.01.02-.02c4.27-4.41,5.5-10.97,3.8-16.79-.08-.27.34-.44.46-.17,2.08,4.24,1.57,9.39-.75,13.46l4.33-4.33.56-2.05,2.05-.56,3.2-3.2c-1.43-1.66-4.6-1.58-4.84.76-.42-5.21,5.61-5.91,7.69-3.61.05-.04.11-.06.17-.06,0,0,.01,0,.02,0,.02,0,.05,0,.07.01.03.01.05.03.08.05s.04.05.05.08c0,.02.01.04.01.07,0,0,0,.01,0,.02,0,.06-.02.12-.06.17,2.3,2.09,1.6,8.12-3.61,7.69,2.34-.23,2.42-3.41.76-4.84l-3.2,3.2-.56,2.05-2.05.56-4.33,4.33c4.06-2.33,9.22-2.83,13.46-.75.26.12.1.54-.17.46-5.81-1.7-12.38-.47-16.79,3.8,0,0-.01.01-.02.02l-2.33,2.33c1.04-.57,2.16-1,3.34-1.25,4.51-1.01,9.54.66,12.49,4.25,1.54,1.73,2.41,4.04,2.41,6.29,0,.11-.08.22-.2.24-.13.03-.26-.06-.29-.19-.43-2.11-1.41-4.03-2.88-5.49-4.41-4.76-11.9-5.3-17.16-1.56l-.28.28-1.36,4.96-4.96,1.36-4.01,4.01c.66-.43,1.34-.83,2.04-1.18.68-.36,1.51-.65,2.21-.98.75-.22,1.56-.53,2.32-.71,9.13-2.23,19.16,1.61,24.05,9.78,7.31,12.14-2.91,29.95-17.6,25.7-5.26-1.53-9.73-6.36-9.57-12.03-.01-2.95,1.21-5.84,3.26-7.93.13-.2.28-.39.46-.56.88-.81,2.09-.94,2.69-.28s.39,1.85-.49,2.66c-.88.81-2.09.94-2.69.28-.21-.22-.31-.51-.33-.82-2.86,4.01-2.72,9.78.7,13.51,4.35,5.04,12.46,5.86,17.75,1.9,8.05-5.95,8.87-18.25,1.65-25.2-4.59-4.81-11.55-7.14-18.13-6.23-2.78.39-5.57,1.31-8,2.73-.33.2-.99.62-1.32.82-.45.31-1.42,1.06-1.87,1.4l-4.15,4.15-.85,3.09-3.09.85-6.87,6.87c-.1.1-.25.1-.34,0s-.1-.25,0-.34l6.87-6.87.85-3.09,3.09-.85,4.15-4.15c.34-.46,1.09-1.42,1.4-1.87.2-.34.62-.99.82-1.32,1.42-2.43,2.34-5.22,2.73-8,.9-6.58-1.42-13.53-6.23-18.13C43.58-.02,31.27.8,25.33,8.85c-3.96,5.3-3.14,13.4,1.9,17.75,3.74,3.42,9.51,3.56,13.51.7-.31-.02-.6-.13-.82-.33-.66-.61-.53-1.81.28-2.69.81-.88,2.01-1.1,2.66-.49s.53,1.81-.28,2.69c-.17.19-.37.34-.56.46-2.1,2.05-4.98,3.27-7.93,3.26-5.67.16-10.5-4.32-12.03-9.57C17.81,5.93,35.62-4.29,47.76,3.02Z"/>
      <path class="cls-1" d="M12.5,5.58c.14,8.87,12.01,14.83,17.88,7.2,2.41-3.19,2.13-8.29-1.45-10.48-3.58-2.47-8.72-.42-9.01,4.09,0,0-.42,0-.42,0,.21-9.28,13.05-7.9,13.95.57.67,7.88-7.62,12.89-14.5,9.47-4.17-1.87-6.92-6.3-6.69-10.85h.23Z"/>
      <path class="cls-1" d="M15.68.6c-1.2,1.2-1.55,3.11-1.55,3.11L0,.6h15.68Z"/>
      <path class="cls-1" d="M83.09,76.41c-7.04.46-13.13-6.5-11.76-13.45.89-4.7,5.57-8.25,10.38-7.74,8.47.9,9.84,13.75.57,13.95v-.42c1.05-.09,2.06-.43,2.89-1.03,4.59-3.25,1.59-10.59-3.62-10.98-8.46-.58-11.76,9.17-6.73,15.23,2,2.51,5.07,4.04,8.28,4.2v.23h0Z"/>
      <path class="cls-1" d="M88.07,72.98c-1.2,1.2-3.11,1.55-3.11,1.55l3.11,14.13v-15.68Z"/>
    </g>
  </g>
</svg>