<?xml version="1.0" encoding="UTF-8"?>
<svg id="Layer_2" data-name="Layer 2" xmlns="http://www.w3.org/2000/svg" viewBox="0 0 134.38 172.11">
  <defs>
    <style>
      .cls-1 {
        stroke-width: 5.58px;
      }

      .cls-1, .cls-2, .cls-3, .cls-4, .cls-5, .cls-6 {
        fill: none;
        stroke: #000000;
        stroke-linecap: round;
        stroke-linejoin: round;
      }

      .cls-2 {
        stroke-width: 4.34px;
      }

      .cls-3 {
        stroke-width: 4.96px;
      }

      .cls-4 {
        stroke-width: 3.1px;
      }

      .cls-5 {
        stroke-width: 1.86px;
      }

      .cls-6 {
        stroke-width: 2.48px;
      }
    </style>
  </defs>
  <g id="Layer_1-2" data-name="Layer 1">
    <path class="cls-1" d="M29.16,106.38c-.39,2.65-.75,5.3-1.17,7.94-1.28,8.14-2.59,16.28-3.87,24.42-.66,4.2-1.24,8.41-1.97,12.59-.23,1.31-.19,2.6-.13,3.88.07,1.33.85,2.28,2.09,2.92,2.42,1.25,4.99,2.07,7.57,2.87,1.15.35,2.14.82,2.91,1.76,1.21,1.49,3.09,1.05,4.65,1.53.55.17,1.19,0,1.74.32"/>
    <path class="cls-1" d="M23.74,105.61c-.42,5.73-1.5,11.38-2.34,17.05-.77,5.18-1.64,10.34-2.51,15.5-.81,4.85-1.67,9.69-2.51,14.53-.48,2.73-2.24,4.18-4.85,4.63-2.05.36-4.13.55-6.2.79-1.58.19-3.02.59-3.58,2.33"/>
    <path class="cls-1" d="M92.14,112c2.93,8.4,5.14,17.02,7.55,25.58,1.8,6.4,3.88,12.71,5.44,19.18.87,3.63.38,4.81-2.91,6.59-1.63.88-3.29,1.7-5.03,2.34-1.05.39-2.12.99-2.68,1.94-.71,1.21-1.75,1.57-2.95,1.71-1.71.2-3.25,1.21-5.04.98"/>
    <path class="cls-1" d="M97.37,110.26c1.61,3.73,2.06,7.79,3.26,11.64,2,6.42,3.77,12.91,5.66,19.36,1.33,4.53,2.63,9.07,4.09,13.56,1.12,3.44,1.6,5.1,6.95,5.05,1.81-.02,3.62,0,5.43,0,.39,0,.87-.15,1.15.02,2.91,1.88,5.83.35,8.74.07"/>
    <path class="cls-1" d="M48.35,68.4c1.22,2.11.15,4.22-.27,6.18-1.53,7.06-3.21,14.14-6.74,20.54-2.54,4.61-5.64,8.75-11,10.53-.97.32-1.76.43-2.73.18-1.13-.3-2.28-.66-3.48-.41-.37.07-.53-.17-.79-.37-4.51-3.54-7.08-8.16-8.16-13.77-.82-4.26-.72-8.52-.73-12.8,0-.58,0-1.21.21-1.74.59-1.52,1.29-1.76,2.48-.77,1.78,1.49,3.92,1.14,5.82.89,7.83-1.05,15.43-2.93,22.11-7.48.59-.4,1.27-.88,1.93-.93,1.34-.1,1.64-1.03,1.92-1.99,1.79-5.94,2.27-12.07,2.72-18.21.2-2.78.34-5.56.6-8.33.39-4.21-1.01-6.52-5.06-7.73-5.99-1.8-12.14-2.76-18.4-2.91-3.11-.08-5.32,1.48-6.18,4.45-1.96,6.76-3.4,13.65-4.87,20.53-1.18,5.51-1.96,11.08-2.74,16.66-.21,1.51.07,2.74.95,3.82,7.91-5.26,16.75-8.23,25.84-10.54,2.25-.57,4.7-.94,6.96.33"/>
    <path class="cls-1" d="M67.14,73.63c2.26-1.9,5-1.52,7.55-1.31,8.07.68,15.75,3,23.26,5.96,3.69,1.45,5.06,4.41,5.24,8.14.13,2.78.65,5.55.37,8.33-.55,5.49-1.27,10.89-5.95,14.78-.95.79-2.01.79-2.98,1.24-4.61,2.12-8.23-.43-11.56-3.08-3.68-2.92-6.21-6.87-8.35-11.01-2.72-5.27-4.76-10.83-6.59-16.47-.16-.49-.25-1.04-.19-1.54.27-2.27-.83-4.1-1.76-6.01-1.13-2.33-1.57-4.89-2.08-7.37-1.2-5.86-2.62-11.67-3.37-17.62-.36-2.89.75-5.37,3.31-6.57,6.2-2.93,12.75-4.69,19.57-5.42,2.65-.29,5.2,1.57,6.19,4.44,3.99,11.53,8.33,22.94,11.09,34.87.4,1.73.56,3.3-.42,4.85"/>
    <path class="cls-1" d="M2.03,160.45c.63.86,1.45,1.4,2.52,1.55,5.61.81,11.21,1.65,16.86,2.13,2.84.24,5.69.5,8.53.78,1.95.19,3.74-.19,5.33-1.36"/>
    <path class="cls-1" d="M126.44,161.22c-.63,1.72-2.14,2.22-3.68,2.72-8.35,2.72-16.86,4.69-25.57,5.87-1.45.2-2.21-.69-3.3-1.04"/>
    <path class="cls-1" d="M99.89,80.61c-1.94,2.48-4.86,2.1-7.36,2.04-5.46-.14-10.87-1.03-16.08-2.82-1.84-.63-3.63-1.38-5.42-2.13-.88-.37-1.73-.75-2.72-.57"/>
    <path class="cls-1" d="M86.91,37.01c-1.52,2.46-4.23,3.01-6.6,4.04-4.51,1.97-9.32,2.87-14.14,3.69-1.63.27-3.21-.06-4.65-.95"/>
    <path class="cls-1" d="M25.09,30.81c1.72,2.54,4.6,2.97,7.19,3.61,4.55,1.12,9.19,1.92,13.93,1.85,1.7-.02,3.25-.2,4.65-1.2"/>
    <path class="cls-2" d="M78.19,62.4c-.76-2.11-2.54-3.21-3.86-2.31-.98.66-1.68,1.56-1.37,2.89.29,1.25,1.18,1.91,2.33,2.1,1.22.2,2.12-.46,2.7-1.52.17-.3.26-.64.39-.97"/>
    <path class="cls-1" d="M68.01,1.74c.04,3.37-.94,6.59-1.45,9.88-.15.97-.26,1.94-.39,2.91"/>
    <path class="cls-2" d="M38.17,51.74c.33,1.25,1.8.69,2.5,1.69.85,1.21.93,2.12.09,3.15-.89,1.08-2.74,1.32-3.67.59-1.19-.93-1.57-2.6-.76-3.67.47-.63,1.07-1.13,1.93-1.17"/>
    <path class="cls-3" d="M48.54,11.82c0,2.15,1.81,3.42,2.57,5.21.54,1.26,1.5,2.34,2.28,3.51"/>
    <path class="cls-1" d="M83.13,18.41c.34.63-.08.98-.48,1.36-1.62,1.54-3.25,3.08-4.84,4.66-.53.53-1.4.91-1.17,1.93"/>
    <path class="cls-4" d="M36.53,45.54c-3.1.13-6.2.26-9.3.39"/>
    <path class="cls-6" d="M31.88,40.89c.04,1.55-.16,3.11.19,4.65"/>
    <path class="cls-5" d="M81.29,47.86c-.56,1.29.1,2.58.05,3.88-.07,1.8.21,3.62.34,5.42"/>
    <path class="cls-6" d="M31.88,45.92v4.26"/>
    <path class="cls-5" d="M81.09,52.32c-1.42.13-2.84.26-4.26.39"/>
    <path class="cls-5" d="M85.75,52.32c-1.42.06-2.84.13-4.26.19"/>
  </g>
</svg>