<?xml version="1.0" encoding="UTF-8"?>
<svg id="Layer_2" data-name="Layer 2" xmlns="http://www.w3.org/2000/svg" viewBox="0 0 169.26 142.18">
  <defs>
    <style>
      .cls-1 {
        fill: none;
        stroke: #000000;
        stroke-linecap: round;
        stroke-linejoin: round;
        stroke-width: 4.8px;
      }
    </style>
  </defs>
  <g id="Layer_1-2" data-name="Layer 1">
    <g>
      <path class="cls-1" d="M102.2,21.54c.68-.39,1.41-.51,2.19-.55,4.76-.24,9.51-.42,14.28-.33,3.4.07,6.79.19,10.18.46,3.32.26,6.61.64,9.91,1.09,5.85.81,11.6,2.05,17.21,3.91,2.94.98,5.75,2.25,8.26,4.11.98.73,1.85,1.63,2.53,2.66.57.87.56,1.87.41,2.86-.03.17-.11.35.01.47.82.8.58,1.84.44,2.73-.58,3.69-2.29,6.85-4.83,9.56-.79.84-1.81,1.42-2.86,1.92-.08.04-.13.14-.28.08-1.1-.48-2.14-.05-3.21.19-2.91.67-5.81,1.43-8.75,1.96-5.84,1.07-11.6,2.52-17.34,4-4.55,1.17-9.02,2.62-13.46,4.14-4.31,1.48-8.55,3.15-12.78,4.84-7.39,2.94-14.62,6.23-21.92,9.38-5.82,2.52-11.7,4.9-17.7,6.96-4.73,1.62-9.53,2.99-14.41,4.1-2.89.66-5.8,1.24-8.74,1.64-1.16.16-2.25.45-3,1.51.87.87,2.01,1.04,3.21.94,1.98-.16,3.97-.29,5.94-.56,2.03-.28,4.06-.58,6.09-.92,2.48-.42,4.97-.83,7.44-1.32.93-.19,1.87-.35,2.8-.55.46-.1.88-.07,1.3.14"/>
      <path class="cls-1" d="M77.75,64.03c-.33.81-.92,1.36-1.71,1.71-2.28.98-4.54,1.99-6.83,2.93-4.28,1.77-8.59,3.48-12.98,4.99-3.26,1.12-6.56,2.16-9.9,3.02-3.26.83-6.57,1.45-9.9,1.93-3.73.53-7.46.6-11.21.5-2.19-.06-4.38-.29-6.56-.57-2.95-.39-5.85-.96-8.67-1.87-1.41-.46-2.76-1.05-4.04-1.83-.57-.35-1.05-.77-1.42-1.31-.16-.24-.29-.42-.62-.41-.45.01-1.11.14-1.32-.1-.43-.48-.7-1.14-.87-1.81-.54-2.18,0-4.23.83-6.21,1.21-2.9,3.13-5.32,5.26-7.58,3.72-3.97,8.02-7.23,12.56-10.18,3.7-2.4,7.54-4.55,11.47-6.57,5.2-2.68,10.52-5.09,16-7.15,1.08-.41,2.11-.94,3.28-1.11,1.08-.15,1.19-.3,1.37-1.5.45-3.08.92-6.16,1.8-9.15,1.23-4.2,2.86-8.24,5.58-11.76,3.33-4.3,7.68-6.88,12.98-8.01,2-.42,4.01-.59,6.01-.43,2.53.19,4.92.97,7.18,2.15,2.71,1.41,5.05,3.28,7.18,5.46,3.19,3.26,5.57,7.06,7.78,11.01.24.44.52.87.95,1.17.13.09.24.25.27.4.36,1.74,1.29,3.18,2.33,4.57.06.09.13.15.14.27.16,1.54,1.09,2.78,1.64,4.16.48,1.2,1.06,2.36,1.55,3.56.21.51.25,1.08.08,1.64-.72.15-1.37,0-2.06-.27-1.88-.72-3.8-.82-5.73-.21-.9.28-1.68.79-2.46,1.29-1.08.68-1.15.59-1.98-.2-1.51-1.46-3.18-2.66-5.19-3.35-3.29-1.13-6.57-.99-9.76.29-3.58,1.43-6.04,4.09-7.72,7.5-.43.87-.78,1.77-1.17,2.66-.17.4-.03.82-.07,1.23"/>
      <path class="cls-1" d="M159.72,50.64c-.04.81-.49,1.35-1.09,1.85-2.11,1.79-4.39,3.34-6.71,4.83-3.41,2.17-6.99,4.04-10.65,5.75-5.21,2.44-10.56,4.52-15.99,6.41-3.69,1.28-7.39,2.5-11.13,3.63-1.6.48-3.18,1.02-4.79,1.49-.69.2-1.23.61-1.77,1.04"/>
      <path class="cls-1" d="M167.03,36.03c-.54.16-1.03.45-1.42.83-.33.32-.69.56-1.11.73-.1.04-.21.06-.27.15-.88,1.29-2.31,1.78-3.63,2.37-2.88,1.29-5.92,2.04-9,2.7-2.27.49-4.55.93-6.84,1.31-2.29.37-4.6.66-6.89.99-1.53.23-3.06.48-4.58.72-1.85.3-3.69.63-5.53.97-2.23.41-4.43.93-6.62,1.51-2.17.58-4.35,1.16-6.49,1.84-.6.19-1.22.26-1.84.07"/>
      <path class="cls-1" d="M51.38,38.69c-.52-.04-1.01,0-1.51.2-4.31,1.8-8.59,3.66-12.77,5.75-3.1,1.55-6.15,3.19-9.15,4.92-3.05,1.76-6,3.66-8.87,5.68-1.88,1.32-3.68,2.76-5.41,4.28-2.11,1.86-4.1,3.83-5.87,6.02-1.5,1.86-2.71,3.85-3.01,6.28-.06.47-.27.9-.54,1.3"/>
      <path class="cls-1" d="M104.73,26.39c.85-.64,1.87-.41,2.8-.46,3.28-.15,6.56-.29,9.84-.22,2.94.06,5.88.17,8.81.39,5.39.41,10.74,1.1,16.05,2.13,5.16,1,10.28,2.16,15.16,4.18,1.98.82,3.91,1.79,5.4,3.41.53.57.89,1.28,1.51,1.77"/>
      <path class="cls-1" d="M111.56,44.98c-.36.07-.62.33-.88.55-3.12,2.67-6.75,4.52-10.39,6.34-2.65,1.32-5.4,2.4-8.2,3.33-3.26,1.08-6.58,1.93-9.96,2.57-2.18.41-4.37.79-6.56,1.06-2.06.25-4.13.47-6.21.51-1.03.02-2.05.15-3.07.12-3.02-.1-6.04-.26-9.02-.85-1.41-.28-2.77-.75-4.17-1-1.25-.22-1.44-.97-1.48-1.9-.06-1.46-.25-2.92.05-4.37.02-.09.06-.16,0-.28-.54-1.3-.27-2.6.06-3.89"/>
      <path class="cls-1" d="M87.72,102.49c1.71-1.28,3.45-2.51,5.11-3.84,1.78-1.41,3.51-2.9,5.06-4.57,3.69-3.98,6.51-8.52,8.48-13.59.49-1.26,1.07-2.48,1.31-3.82.17-.97-.13-1.25-1.1-1.11-1.48.22-2.87.79-4.3,1.19-3.43.95-6.83,2.02-10.25,2.98-3.61,1.02-7.24,1.97-10.86,2.94-4.87,1.31-9.77,2.51-14.69,3.61-.5.11-.89.36-1.3.63.1.92.62,1.65,1.11,2.38,2.13,3.23,4.9,5.85,8.05,8.07,2.45,1.72,4.99,3.27,7.72,4.51.05.02.09.1.14.13,1.17.74,1.01.64.55,1.71-.47,1.11-.4,2.18.41,3.14.3.36.67.66.94,1.04.15.2.3.19.49.19.32,0,.64,0,.96,0,.73.02,1.4.06,1.94-.66.47-.63.98-1.19,1.06-2,.02-.19-.02-.41.28-.41"/>
      <path class="cls-1" d="M2.61,73.12c-.75,1.29-.08,2.39.48,3.48,1.85,3.59,4.7,6.24,8.05,8.41,2.94,1.91,6.19,3.01,9.57,3.72,2.01.42,4.08.58,6.14.65.68.02,1.37.09,2.05.13"/>
      <path class="cls-1" d="M109.58,39.58c.85.54.96,1.5,1.28,2.33.36.92.82,1.83.76,2.86,0,.13.07.19.14.27,1,1.15,1.4,2.46,1.03,3.96-.03.13-.1.29-.06.41.3,1.09-.5,1.36-1.24,1.64-1.79.66-3.59,1.28-5.39,1.92-3.58,1.26-7.09,2.69-10.59,4.17-3.63,1.54-7.21,3.21-10.88,4.68-2.1.84-4.31,1.4-6.48,2.06-.12.04-.28.15-.48.02-1.28-.85-2.68-.41-4.02-.27-3.61.36-7.23.5-10.86.34-2.62-.12-5.19-.46-7.72-1.17-1.2-.33-2.37-.79-2.91-1.99-.48-1.06-.61-2.22-.02-3.34"/>
      <path class="cls-1" d="M108.01,36.03c.3.32.58.65.89.95.69.68.63,1.53.62,2.39,0,.2-.15.13-.22.2-.21.2-.46.36-.67.56-.73.68-.95.72-1.77.2-.75-.48-1.53-.89-2.4-1.08-2.33-.5-4.33.08-5.95,1.89-.62.69-1.02,1.56-1.7,2.19-.12.11-.26.2-.4.32-.6-.37-.95-.92-1.31-1.47-.65-1.01-1.4-1.95-2.32-2.74-1.85-1.6-4.01-2.42-6.42-2.5-1.46-.05-2.9.34-4.23.95-3.86,1.74-6,4.8-6.71,8.94-.16.94-.03,1.97-.67,2.8"/>
      <path class="cls-1" d="M84.24,108.16c-1.29,2.81-2.3,5.71-2.95,8.74-.51,2.37-.66,4.75-.04,7.1.35,1.33,1,2.53,2.36,3.16.38.17.69.49,1.03.74.46.34.71.77.62,1.37-.05.35-.05.71.27.95.17.12.16.28.13.41-.61,2.28-.14,4.6-.26,6.9-.05.82.05,1.64-.06,2.46-.03.22.04.45.06.68"/>
      <path class="cls-1" d="M86.83,108.16c1.43,3.16,2.38,6.46,2.79,9.91.21,1.8.21,3.61-.25,5.4-.42,1.66-1.16,3.06-2.74,3.9-.49.26-.91.62-1.23,1.09"/>
      <path class="cls-1" d="M79.63,8.43c.41,2.46,1.46,4.62,3.03,6.57,2.51,3.12,5.8,4.81,9.65,5.58.51.1,1.05.06,1.57.08"/>
      <path class="cls-1" d="M70.03,15.33c-.08,4.25-1.63,7.9-4.51,11-1.35,1.46-2.94,2.6-4.71,3.49-.51.26-1.02.37-1.57.23"/>
      <path class="cls-1" d="M85.74,130.43c1.06.47,1.74,1.24,2.06,2.39.6,2.16,1.27,4.29,1.29,6.56"/>
      <path class="cls-1" d="M85.19,129.95c-1.27.49-2,1.42-2.41,2.73-.58,1.86-1.05,3.75-1.35,5.67"/>
      <path class="cls-1" d="M75.15,51.33c.05-.5-.14-.93-.34-1.37-.08-.17-.18-.24-.4-.29-.65-.15-1.16-.6-1.71-.94-4.3-2.74-9.45-.67-11.01,3.49-.16.43-.34.88-.67,1.24-.18.2-.04.49-.08.74"/>
      <path class="cls-1" d="M60.88,53.51c-1.1-.15-1.89-.92-2.8-1.44-1.58-.89-3.22-1.38-5.06-.96-.39.09-.82.06-1.23.08"/>
      <path class="cls-1" d="M85.13,67.72c-.42-.09-.61.12-.83.47-.97,1.52-2.34,2.43-4.15,2.69-.61.09-1.18.12-1.78,0-1.02-.22-1.02-.18-1.02-1.24"/>
      <path class="cls-1" d="M71.74,43.75c-.39,0-.77-.04-1.16-.13-4.17-.97-7.55.42-10.31,3.55-1.01,1.15-.88,1.13-2.18.52-1.56-.73-3.17-1.01-4.86-.78-.48.06-.97.03-1.44.18"/>
      <path class="cls-1" d="M100.19,60.69c.04.39-.11.72-.31,1.02-1.34,2.01-3.84,3.23-6.35,2.53-.29-.08-.59-.12-.89-.17"/>
      <path class="cls-1" d="M69.69,74.14c-.27.03-.5-.06-.71.33-.99,1.85-3.73,3.34-6.19,2.62-.42-.12-.84-.27-1.3-.21"/>
      <path class="cls-1" d="M115.73,55.39c-.37-.14-.48.16-.61.38-1.27,2.03-4.19,3.3-6.84,2.39-.19-.07-.41-.07-.61-.11"/>
      <path class="cls-1" d="M37.72,83.5c-1.94,1.76-4.78,1.93-7.03.53-.27-.17-.5-.18-.76-.19"/>
      <path class="cls-1" d="M53.7,79.06c.05.48-.3.78-.56,1.08-1.34,1.55-3.91,2.38-6.08,1.67-.57-.19-.65-.51-.64-.98"/>
      <path class="cls-1" d="M147.29,47.74c-.21-.08-.33-.02-.49.16-1.21,1.42-2.81,2.02-4.64,2.05-.66,0-1.3-.17-1.91-.42-.23-.09-.43-.21-.69-.19"/>
      <path class="cls-1" d="M15.14,81.52c.12.23-.05.45-.03.68,1.68,1.86,4.28,2.39,6.76,1.15.16-.08.35-.1.49-.23"/>
      <path class="cls-1" d="M160.2,43.54c.18,1.53-.91,2.16-1.98,2.8-1.25.74-2.62.96-4.02.59-.52-.14-1.01-.05-1.51-.11"/>
      <path class="cls-1" d="M51.93,32.41c.5.91.09,1.87.1,2.8,0,.32-.09.68-.1,1.02-.01.34.11.74-.02,1.01-.5,1.03-.24,2.1-.26,3.15-.02,1.64-.07,3.28-.14,4.92-.02.59.06,1.16.28,1.71"/>
      <path class="cls-1" d="M131.44,50.64c0,.25-.01.46-.2.69-1.15,1.43-2.6,2.24-4.45,2.31-.88.03-1.77.03-2.59-.35-.23-.11-.46-.03-.69-.06"/>
      <path class="cls-1" d="M88.61,105.02c-.08-.52-.21-1.01-.39-1.51-.45-1.24-1.48-1.41-2.55-1.56-.96-.13-1.69.47-2.53.75"/>
      <path class="cls-1" d="M69.52,10.82c-.12.78.24,1.5.34,2.25.09.73.07,1.46.21,2.19h.92"/>
    </g>
  </g>
</svg>