<?xml version="1.0" encoding="UTF-8"?>
<svg id="Layer_2" data-name="Layer 2" xmlns="http://www.w3.org/2000/svg" viewBox="0 0 100.25 72.17">
  <style>path,polyline,line,circle,rect,ellipse{fill:none;stroke:#000;stroke-width:0.8px;stroke-linecap:round;stroke-linejoin:round}</style><g id="Layer_1-2" data-name="Layer 1">
    <path d="M.24,61.31C-.04,44.96-.22,29.04.55,13.12c.14-2.94,1.59-3.7,3.82-3.59,2.77.14,3.77-.96,3.56-3.59-.21-2.69,1.41-3.69,3.8-3.78,2.65-.1,5.32,0,7.96-.19,3.68-.26,6.54.35,6.53,4.93,0,1.18.66,1.97,1.92,1.96,1.53,0,2.19-1.1,2.03-2.35-.67-5.3,2.3-6.23,6.71-6.21C47.35.35,57.82.14,68.29,0c3.29-.04,3.76,2.13,3.92,4.7.1,1.7-.2,3.72,2.29,4.14,2.2.37,3.37-.55,4.49-2.55,2.34-4.17,11.23-3.91,13.35.3.65,1.29,1.18,2.29,2.75,2.41,4.34.33,5.31,3.54,5.14,6.92-.64,12.66-.43,25.32-.57,37.99-.04,3.69-.04,7.37-.06,11.06-.01,3.59-1.65,5.67-5.26,6.57-3.38.84-6.75.65-10.11.55-25.34-.77-50.67-2.03-76.03-1.23-7.01.22-8.04-.95-7.96-9.54M42.37,66.5c15.61.55,31.23-.55,46.83.55,3.25.23,5.58-.31,5.68-4.23.1-3.91-2.38-4.72-5.5-4.62-5.89.18-11.77.56-17.66.7-1.61.04-3.61.7-5.01-1.86,4.54-3.4,7.94-8.02,8.33-13.75.72-10.42,8.39-14.54,16.18-17.83,4.13-1.74,4.53-3.88,4.27-7.26-.3-3.95-3.03-4.48-6.28-4.54-25.5-.5-50.99-.92-76.49-.7-10.1.09-8.2-1.18-8.61,8.85-.09,2.26-.15,4.69,2.78,5.24,5.66,1.07,9.26,5.58,14.02,8.14,1.61.87,2.64,2.44,2.99,4.23,1.37,7.13,3.66,13.59,10.47,17.58,1.93,1.13,1.27,2.95-.86,3.46-2.67.64-5.82,1.37-8.11.94-5.45-1.01-10.84-.27-16.22-.73-2.05-.17-4.32-.18-4.3,2.98.02,3.27,2.4,2.8,4.4,2.81,10.75.03,21.49.03,33.1.04M58.06,4h-24.17c-.77,1.64-.69,3.14.29,4.92,10.33,0,20.74,0,31.16,0,1.68,0,2.86-.5,2.89-2.47.03-1.92-1.13-2.69-2.75-2.72-2.19-.05-4.39.15-7.42.27M12.55,9.56c2.61-.02,5.22.02,7.83-.08.84-.03,1.76-.3,2.07-1.3.24-.77-.1-1.43-.62-1.97-1.25-1.3-8.88-1.55-10.04-.27-1.03,1.13-1.07,2.33.76,3.62Z"/>
    <path d="M56.23,57.72c-9.96,1.26-18.83-.05-24.46-8.93-8.26-13.03-1.84-27.9,13.25-31.38,9.49-2.19,19.88,1.49,24.3,8.6,4.31,6.93,3.65,17.41-1.53,24.15-2.88,3.75-6.68,6.15-11.57,7.55M44.75,26.4c-.52.28-1.05.53-1.55.85-5.36,3.47-7.21,7.96-5.58,13.5,1.39,4.75,6.31,8.32,11.74,8.52,6.27.23,10.84-2.74,12.69-8.2,1.48-4.35,1.36-8.55-1.95-11.97-4.13-4.25-9.23-4.8-15.35-2.71Z"/>
    <path d="M19.22,25.11c-2.99-1.36-4.73-3.14-3.39-6.3,1.1-2.58,3.32-3.24,5.8-2.58,2.64.71,4.57,2.59,4.03,5.41-.59,3.07-3.14,3.93-6.44,3.46Z"/>
  </g>
</svg>