<?xml version="1.0" encoding="UTF-8"?>
<svg id="Layer_2" data-name="Layer 2" xmlns="http://www.w3.org/2000/svg" viewBox="0 0 155.1 135.86">
  <defs>
    <style>
      .cls-1 {
        stroke-width: 3.49px;
      }

      .cls-1, .cls-2, .cls-3 {
        fill: none;
        stroke: #000;
        stroke-linecap: round;
        stroke-linejoin: round;
      }

      .cls-2 {
        stroke-width: 3.1px;
      }

      .cls-3 {
        stroke-width: 1.16px;
      }
    </style>
  </defs>
  <g id="Layer_1-2" data-name="Layer 1">
    <path class="cls-1" d="M61.12,54.09c-2.33,3.3-4.66,6.57-6.05,10.45-1.61,4.48-2.68,8.99-2.91,13.77-.29,6.05.4,11.91,2.37,17.64,2.02,5.89,5.07,11.12,9.03,15.95,2.06,2.51,5.08,4.01,6.67,6.91,4.14,1.34,7.45,4.28,11.6,5.7,4.45,1.52,8.96,2.74,13.59,2.74,8.3,0,16.11-1.94,23.09-6.85,6.52-4.57,11.16-10.48,13.9-17.88,2.47-6.69,3.19-13.57,2.41-20.73-1.17-10.8-5.39-20.18-12.7-28.05-6.79-7.31-15.2-12.06-25.15-13.57-9.81-1.49-18.89.93-27.3,6-.91.55-1.79,1.35-2.15,2.49"/>
    <path class="cls-1" d="M71.01,110.09c4.81-5.24,7.57-11.42,8.73-18.41,1.95-11.68-1-21.97-8.56-30.99-1.13-1.35-2.37-2.67-4.24-3.14-.85-.21-.72-1.33-1.53-1.77-1.27-.7-2.35-1.66-3.89-1.95-1.02-.19-1.61-1.33-2.71-1.73-3.46-1.25-6.97-2.03-10.67-2.35-6.9-.6-13.34.93-19.35,4.01-6.3,3.23-11.45,7.88-15.17,14.07-5.5,9.13-7.44,18.85-4.99,29.27,3.13,13.34,13.09,23.37,26.91,25.99,10.19,1.94,19.4-.29,27.93-5.99.95-.64,1.66-1.45,2.49-2.17"/>
    <path class="cls-1" d="M72.94,52.34c3.26-2.94,7.29-4.4,11.44-5.17,10.57-1.97,20.14.53,28.68,7.1,6.35,4.89,10.98,11.09,13.5,18.63,4.17,12.49,3.77,24.75-4.09,35.78-6.03,8.46-14.66,12.58-25.12,12.86-6.45.17-12.39-1.53-18.01-4.51-1.16-.61-2.4-1.28-3.1-2.5-.22-.38-.47-.35-.79-.39-.91-.11-1.76-.59-2.29-1.19-3.23-3.57-6.98-6.67-9.37-11-2.76-5-4.73-10.26-5.35-15.91-.83-7.54.09-14.85,3.63-21.7,1.23-2.38,2.98-4.39,4.47-6.58"/>
    <path class="cls-1" d="M76.04,113.96c2.02-2.98,4.19-5.86,5.83-9.1,2.45-4.84,3.97-9.89,4.49-15.31.33-3.45.41-6.83-.02-10.28-.99-7.86-3.92-14.85-8.71-21.14-1.42-1.87-3.46-3.21-4.52-5.39-.22-.45-.73-.69-1.32-.83-.68-.16-1.4-.49-1.93-.95-5.02-4.37-11.2-5.97-17.46-7.32-3.63-.78-7.44-.88-11.02-.27-3.6.61-7.17,1.77-10.72,2.82-2.79.83-5.21,2.29-7.62,3.59-2.28,1.22-4.27,3.27-6.28,5.08-7.96,7.21-12.89,16.23-14.46,26.74-2.57,17.29,3.75,32.5,19.35,42.34,5.76,3.63,12.36,5.37,19.32,5.54,9.6.24,18.28-2.36,26.17-7.77,1.15-.79,2.29-1.55,3.09-2.72"/>
    <path class="cls-1" d="M71.3,11.07c-1.03-.32-1.5-1.29-2.22-1.95-1.78-1.64-3.92-2.02-5.64-.96-2.19,1.34-2.39,3.31-1.69,5.81.76,2.72,2.95,4.58,4.8,6.59,3.18,3.47,3.39,3.54,7.14.76,2.87-2.13,5.7-4.37,6.99-7.92.76-2.09.08-4.61-1.56-5.2-1.74-.63-3.6-.43-4.98.79-1.15,1.01-2.94,1.54-3.14,3.44"/>
    <path class="cls-1" d="M41.17,31.8c-1.77,1.77-4.21,1.95-6.4,2.69-3,1.01-6.07,1.81-9.1,2.75-1.16.36-2.33.16-3.49.18"/>
    <path class="cls-1" d="M42.33,22.7c3.97,1.64,7.17,3.97,8.17,8.52.4,1.83-.81,3.12-1.26,4.64-.68,2.27-1.97,4.35-2.06,6.8"/>
    <path class="cls-1" d="M22.95,49.44c-2.02-2.3-4.73-3.77-7.02-5.77-.98-.86-1.33-1.86-1.85-2.87,2.41-.84,4.66-1.64,6.93-2.4,1.18-.39,1.51-1.17.55-1.91-1.36-1.05-2.1-2.4-2.68-3.92-.38-.99-1.59-1.38-1.75-2.52-.26-1.77.57-2.98,2.72-3.67,2.26-.72,4.52-1.32,6.96-1.53,1.47-.13,3.2-.53,4.71-1.51,2.46-1.58,5.38-2.22,8.29-2.56,1.4-.16,2.68,1.23,2.27,2.46-.49,1.46-.14,2.85-.17,4.28-.05,2.15-.26,4.23.33,6.42.53,1.99-.44,4.11-.73,6.17-.14,1-.03,1.94.04,2.91"/>
    <path class="cls-2" d="M27.02,25.41c.25,1.1-.2,1.99-.76,2.92-1.6,2.65-2.67,5.59-4.47,8.13"/>
    <path class="cls-1" d="M31.09,24.25c.45,1.06,1.34,1.61,2.31,2.16,2.62,1.48,5.18,3.08,7.76,4.63"/>
    <path class="cls-1" d="M17.14,30.64c-2.59,2.82-3.71,6.07-2.91,9.88"/>
    <path class="cls-1" d="M21.79,38.39c.27,2.1,1.9,3.35,3.12,4.83.98,1.18,2.15,2.21,2.69,3.7"/>
    <path class="cls-1" d="M50.08,30.06c-2.72.54-5.29,1.8-8.14,1.74"/>
    <path class="cls-1" d="M46.01,1.77c-.68-.07-1.31-.05-1.55.77-.57,1.94-1.16,3.88-1.74,5.81"/>
    <path class="cls-1" d="M153.36,95.46c-2.61.27-5.08,1.4-7.75,1.36"/>
    <path class="cls-1" d="M126.04,127.14c.26,2.33.52,4.65.78,6.98"/>
    <path class="cls-1" d="M139.41,114.55c-.12,1.83,1.56,2.29,2.52,3.3.82.86,2.13,1.32,2.33,2.71"/>
    <path class="cls-1" d="M21.79,2.35c.25,2.16,1.38,4.07,1.79,6.26.43.34.99.04,1.5.14"/>
    <path class="cls-3" d="M52.99,29.87c-.9.08-1.83-.19-2.71.19"/>
  </g>
</svg>