<?xml version="1.0" encoding="UTF-8"?>
<svg id="Layer_2" data-name="Layer 2" xmlns="http://www.w3.org/2000/svg" viewBox="0 0 182.14 137.93">
  <defs>
    <style>
      .cls-1 {
        stroke-width: 5.58px;
      }

      .cls-1, .cls-2, .cls-3 {
        fill: none;
        stroke: #000000;
        stroke-linecap: round;
        stroke-linejoin: round;
      }

      .cls-2 {
        stroke-width: 6.82px;
      }

      .cls-3 {
        stroke-width: 6.21px;
      }
    </style>
  </defs>
  <g id="Layer_1-2" data-name="Layer 1">
    <path class="cls-1" d="M36.42,33.87c-.27-7.66-5.48-14.94-14.34-16.68-8.68-1.71-17.16,3.53-19.53,11.66-1.81,6.2-.67,11.84,3.99,16.68,3.71,3.86,8.15,5.8,13.4,5.74,4.39-.05,8.3-1.58,11.43-4.8"/>
    <path class="cls-3" d="M134.47,34.35c-1.68.29-3.19.46-3.97,2.58-.81,2.2-3.09,3.44-4.76,5.06-3.65,3.53-7.37,6.97-11.02,10.49-.82.8-1.71,1.46-2.74,1.89-.3.12-.72.41-1.16.04-1.26-1.05-2.79-.78-4.25-.78-20.22,0-40.43,0-60.65,0-.71,0-1.48-.2-2.12.2-1.89,1.18-3.34.21-4.64-1-1.67-1.56-3.18-3.3-5.06-4.62-3.44-2.42-5.86-5.9-9.09-8.55-1.31-1.08-2.38-2.39-2.92-4.06"/>
    <path class="cls-2" d="M17.82,34.45c1.8-.65,3.33,1.47,5.25.42,1.61-.88,3.47-.35,5.21-.41,1.74-.06,3.49-.07,5.23,0,1.08.05,2.12-.53,3.09-.36,4.39.74,8.79.28,13.18.31,12.79.09,25.58.04,38.37.02,2.27,0,4.53-.1,6.81-.32,2.08-.21,4.5.11,6.75.36,1.42.16,2.78.38,4.08-.42.17-.1.4-.22.58-.19,6.95,1.28,13.96.25,20.93.54,1.34.06,2.58.19,3.68.99"/>
    <path class="cls-1" d="M106.38,33.67c-.11-1.27.53-2.27,1.15-3.3,4.28-7.09,8.55-14.2,12.79-21.31,1.3-2.18.62-5.17-1.73-6.6-2.09-1.28-4.77-.86-6.18,1.39-3.76,6.02-7.39,12.13-11.07,18.2-1.8,2.97-3.62,5.94-5.42,8.91-.51.83-.91,1.7-.78,2.71"/>
    <path class="cls-3" d="M60.26,134.24c1.12.95,2.42,1.19,3.88,1.18,8.01-.04,16.02-.01,24.03-.02,2.02,0,4.05-.12,6.01.58"/>
    <path class="cls-3" d="M111.22,54.8c-.25.89-.66,1.68-1.35,2.33-4.14,3.93-8.21,7.94-12.42,11.8-4.58,4.2-9.13,8.43-13.55,12.81-.39.39-.99.71-1.13,1.17-.7,2.45-3.2,3.02-4.7,4.62-.81.87-1.77.37-2.48-.2-1.03-.83-1.79-2.05-3.31-2.11"/>
    <path class="cls-3" d="M42.43,54.6c.09,1.74,1.38,2.74,2.55,3.65,3.26,2.55,5.95,5.69,9.03,8.42,5.34,4.72,10.39,9.76,15.54,14.68.69.66,1.39,1.36,1.92,2.14.55.8.97,1.73.22,2.7-.54.7-.38,1.53-.39,2.32-.09,10.53.64,21.05.41,31.59-.05,2.19.23,4.39.36,6.59"/>
    <path class="cls-1" d="M142.23,102.27c.3,6.29-2.29,10.95-7.95,13.74-4.23,2.08-8.39,1.5-12.39-.77-.23-.13-.37-.42-.59-.57-1.01-.68-2.4-.72-3.1-1.94-1.94-3.39-3.86-6.79-3.85-10.86,0-1.42-.02-2.82.29-4.28.5-2.32,1.55-3.92,3.75-4.85,1.55-.66,2.42-1.76,2.18-3.67-.19-1.51,1.56-2.9,3.83-3.28,5.24-.89,9.53.79,13.21,4.62,3.19,3.31,4.53,7.2,4.62,11.66"/>
    <path class="cls-1" d="M162.47,81.54c.17,1.64.3,3.25-.86,4.66-.65.79-.4,1.79-.39,2.7.02,2.32-.62,4.36-2.54,5.8-1.19.89-2.4,1.78-3.69,2.51-1.73.97-2.73.45-3.28-1.53-.51-1.81-.95-3.65-1.57-5.42-.62-1.77-1.77-3.42-2.34-5.1-1.15-3.37-3.63-6.99-.35-10.61.13-.14.14-.38.2-.57"/>
    <path class="cls-1" d="M148.62,73.79c-.26,0-.65.11-.76-.02-1.43-1.7-3.54-1.96-5.43-2.73-1.85-.75-2.01-1.34-.96-3.05,1.51-2.49,3.22-4.83,5.17-7.02,1.83-2.05,4.83-2.02,6.6-1.06,4.19,2.27,8.68,4.35,11.9,7.83,1.76,1.91,3.72,2.62,5.79,3.51,1.43.61,2.62,1.44,3.67,2.55,1.69,1.79,1.87,3.88.37,5.8-.67.86-1.41,1.77-2.33,2.3-2.57,1.48-3.79,4.23-5.97,6.07-.13.11-.02.5-.02.76"/>
    <path class="cls-3" d="M81.38,85.8c.5.77.77,1.57.79,2.52.26,11.3.5,22.6.38,33.91-.01,1.16.19,2.33.16,3.49-.02,1.02.7,1.22,1.38,1.55,2.78,1.35,5.52,2.78,8.35,4.04,1.54.69,2.73,1.63,3.48,3.13"/>
    <path class="cls-3" d="M180.21,51.02c-1.46.3-1.97,1.58-2.71,2.62-3.28,4.55-6.87,8.83-10.84,12.8-.39.39-.65.9-.98,1.35"/>
    <path class="cls-1" d="M97.46,112.73c.3,5.07,1.95,9.65,4.63,13.97,4.19,6.76,11.45,7.36,16.31,5.23.98-.43,2.02-.72,2.9-1.36,1.63-1.17,1.8-2.01.57-3.48-1.32-1.58-2.74-3.07-4.05-4.66-4.19-5.09-8.42-10.15-13-14.91-.85-.89-1.75-1.75-2.72-2.5-.67-.52-1.38-.61-2.14.15-1.53,1.53-2.05,3.42-2.3,5.45-.08.64.11,1.32-.2,1.94"/>
    <path class="cls-1" d="M82.74,126.49c-1.22.67-2.6.82-3.86.53-2.22-.51-4.39.65-6.63-.06-.59-.19-1.52.69-2.3,1.07-2.39,1.17-4.78,2.33-7.17,3.49-.26.13-.63.19-.76.4-2.02,3.16-5.55,2.84-8.54,3.77"/>
    <path class="cls-3" d="M147.26,85.22c-1.67.71-2.91,1.98-4.05,3.31-1.08,1.26-2.24,2.42-3.51,3.47"/>
    <path class="cls-3" d="M103.08,129.21c-1.92,1.3-3.57,2.83-4.44,5.1.93.74,2.05,1.1,3.28,1.2"/>
  </g>
</svg>