<?xml version="1.0" encoding="UTF-8"?>
<svg id="Layer_2" data-name="Layer 2" xmlns="http://www.w3.org/2000/svg" viewBox="0 0 155.62 118.65">
  <defs>
    <style>
      .cls-1 {
        stroke-width: 5.58px;
      }

      .cls-1, .cls-2 {
        fill: none;
        stroke: #000000;
        stroke-linecap: round;
        stroke-linejoin: round;
      }

      .cls-2 {
        stroke-width: 6.21px;
      }
    </style>
  </defs>
  <g id="Layer_1-2" data-name="Layer 1">
    <path class="cls-1" d="M85.91,116.68c5.71-.77,11.18-2.28,16.5-4.59,6.04-2.62,11.26-6.32,16.06-10.72,7.05-6.47,12.15-14.25,15.27-23.27,1.85-5.37,3.05-10.9,3.18-16.65.17-7.37-.68-14.52-3.11-21.52-2.39-6.9-5.99-13.02-10.67-18.61-6.13-7.32-13.72-12.56-22.52-16.02-8.14-3.2-16.66-3.99-25.37-3.36-12.34.9-23.13,5.55-32.32,13.64-9.48,8.34-15.81,18.72-18.68,31.14-1.39,6.03-1.74,12.14-1.25,18.22.99,12.22,5.62,23.07,13.69,32.36,8.2,9.43,18.36,15.66,30.6,18.43,6.09,1.38,12.24,1.31,18.41.96"/>
    <path class="cls-1" d="M77.58,12.05c-14.94.99-26.72,7.88-35.38,19.82-5.73,7.9-8.69,16.9-8.87,26.88-.24,13.49,4.4,24.93,13.68,34.45,6.63,6.8,14.83,11.1,24.19,12.78,10.18,1.83,19.97.38,29.26-4.38,10.18-5.22,17.42-13.09,22.09-23.47,3.43-7.61,4.5-15.65,3.79-23.83-.91-10.51-5.13-19.74-12.33-27.52-6.57-7.1-14.54-11.77-24.03-13.74-4.02-.84-8.07-1.5-12.2-.98"/>
    <path class="cls-1" d="M39.69,63.4c.76,8.07,3.66,15.31,8.63,21.7,3.76,4.84,8.38,8.68,13.95,11.22,10.12,4.62,20.46,5.42,31,1.4.53-.2,1.16-.15,1.74-.21"/>
    <path class="cls-2" d="M2.78,8.36c-.38,8.07-.67,16.14-.84,24.22-.07,3.39.86,6.34,2.83,8.88,1.97,2.53,2.52,5.38,2.63,8.37.14,3.68.27,7.38-.02,11.04-.44,5.49-.81,11-1.41,16.48-.92,8.42-2.05,16.86-1.63,25.37.11,2.25.63,4.38,1.71,6.41,1.03,1.93,2.71,2.88,4.68,3.03,2.1.16,3.47-1.29,4.45-3.04.98-1.75,1.38-3.67,1.53-5.62.4-5.5.03-11.01-.59-16.47-1.15-10.13-2.63-20.21-2.94-30.42-.09-2.92-.05-5.82.1-8.72.15-2.83,1.46-5.27,3.06-7.56,1.88-2.69,2.33-5.72,2.14-8.91"/>
    <path class="cls-1" d="M152.95,9.72c0,12.34-.02,24.67,0,37.01.01,6.27.09,12.53.19,18.8.09,6.01.25,12.01.38,18.02.13,5.81.38,11.63.33,17.44-.02,2.65.1,5.35-.87,7.96-.6,1.61-1.25,2.93-3.14,3.08-1.62.13-2.79-.8-3.68-2.9-1.34-3.17-1.48-6.55-1.31-9.88.19-3.68.1-7.37.49-11.05.49-4.57.64-9.17,1.02-13.75.39-4.59.87-9.17,1.35-13.76.16-1.58-.59-2.63-1.96-3.07-3.39-1.08-4.42-3.56-4.46-6.81-.08-7.75.56-15.43,1.93-23.06.93-5.19,2.12-10.28,4.29-15.11.95-2.1,1.86-4.25,4.5-4.92.32.63.62,1.22.92,1.82"/>
    <path class="cls-2" d="M12.56,8.75c.53,8,.2,16.02.29,24.03"/>
    <path class="cls-2" d="M17.6,8.75c.16,3.75.17,7.51.53,11.23.35,3.69-.22,7.38.42,11-.48.45-.98.15-1.43.24"/>
    <path class="cls-1" d="M7.53,8.75c.03,5.49.04,10.98.11,16.47.03,2.33-.42,4.65,0,6.98"/>
  </g>
</svg>