<?xml version="1.0" encoding="UTF-8"?>
<svg id="Layer_2" data-name="Layer 2" xmlns="http://www.w3.org/2000/svg" viewBox="0 0 163.39 158.31">
  <defs>
    <style>
      .cls-1 {
        stroke-width: 5.58px;
      }

      .cls-1, .cls-2, .cls-3 {
        fill: none;
        stroke: #000000;
        stroke-linecap: round;
        stroke-linejoin: round;
      }

      .cls-2 {
        stroke-width: 6.21px;
      }

      .cls-3 {
        stroke-width: 4.96px;
      }
    </style>
  </defs>
  <g id="Layer_1-2" data-name="Layer 1">
    <path class="cls-2" d="M52.13,74.6c.52,1.7-.18,3.36-.19,5.04-.01,5.68-.15,11.37.07,17.05.09,2.32.31,4.65.33,6.98,0,.69.46,1.11,1.15,1.16,3.36.21,6.73.27,10.07.61,6.06.63,12.15.17,18.22.51,1.61.09,3.25-.3,4.84.24"/>
    <path class="cls-2" d="M103.09,48.25c-.33,1.37.23,2.63.61,3.87,1.69,5.52,2.87,11.15,3.68,16.86.31,2.19.73,4.36.57,6.58-1.76,1.06-3.56.15-5.23-.08-2.97-.4-5.93-.81-8.92-1.13-2.08-.23-4.13-.31-6.21-.33"/>
    <path class="cls-2" d="M31.59,100.96c.25-1.42.13-2.83.04-4.27-.38-5.55-.35-11.11-.04-16.66.47-8.61,2.06-17.03,4.12-25.37.2-.79.33-1.54.34-2.34.03-1.55,1.32-2.71,2.91-2.72,2.36-.01,4.66-.57,6.98-.94,2.57-.41,5.17-.66,7.75-.99.76-.1,1.42.28,2.07.41,1.42-.57,1.27-1.72,1.47-2.92.77-4.55,2.48-8.85,3.97-13.2.64-1.85,1.67-3.55,1.84-5.6.09-1.02,1.24-1.47,2.26-1.54,3.29-.23,6.57-.6,9.89-.25.95.1,1.59.58,2.32,1.01,1.42-.74,2.62-.67,4.32-.18,2.36.68,4.87,1.15,7.31,1.74,1.83.44,3.59,1.06,5.03,2.33.96.84,1.95,1.47,3.3,1.36,2.2-.18,3.75,1.38,5.39,2.38,6.29,3.83,12,8.38,16.33,14.46.27.38.49.77.54,1.18.27,2.25,1.86,3.86,2.73,5.81.08.19.09.52.2.56,3.54,1.1,4.02,4.51,5.15,7.22,1.88,4.49,3.08,9.22,3.6,14.11.18,1.66.28,3.17-.06,4.88-.22,1.1.45,2.65.4,4.03-.13,4.5-.5,9.03-2.4,13.14-1.23,2.66-1.3,5.61-2.64,8.17-1.08,2.08-1.66,4.6-4.45,5.23"/>
    <path class="cls-2" d="M43.6,32.75c-1.42-.17-2.69.2-3.88.97-6.65,4.26-12.5,9.39-17.02,15.91-.85,1.23-1.91,2.51-1.59,4.24.1.52-.32.84-.59,1.15-1.58,1.79-1.86,4.12-2.69,6.22-.07.17-.07.42,0,.57,1.86,3.91-.12,7.76-.25,11.63-.06,1.94-.16,3.88-.14,5.81,0,.89-.16,1.61-1.18,1.74-1.29.16-2.58.27-3.87.4"/>
    <path class="cls-2" d="M77.51,25.77c-.34,2.17.98,3.9,1.57,5.81,1.38,4.43,2.82,8.84,3.89,13.37,1.29,5.45,2.19,10.97,2.96,16.49.54,3.82.6,7.79,1.09,11.58.52,4.02.26,8.05.82,12.06.33,2.36,0,4.89-.08,7.35-.15,4.39-.71,8.77-.57,13.18"/>
    <path class="cls-2" d="M55.81,48.25c.38,2.36-.6,4.53-.97,6.78-.71,4.38-1.49,8.73-1.79,13.17-.12,1.82-.5,3.61-.15,5.43"/>
    <path class="cls-2" d="M82.74,127.5c-.78-.49-1.66-.38-2.52-.39-5.17,0-10.34-.09-15.5.04-2.27.06-4.49-1.03-6.8-.09-.69.28-.99-.77-1.53-1.12"/>
    <path class="cls-1" d="M149.79,54.64c-1.97.45-3.73,1.28-4.03,3.49-.4,2.88,1.02,4.59,3.44,5.28,2.13.61,4.55-1.3,5.04-2.96.64-2.19-.87-4.88-3.09-5.61-.37-.12-.77-.14-1.16-.2"/>
    <path class="cls-2" d="M16.66,81.19c.29.48.43,1,.38,1.55-.26,3.44.5,6.83.43,10.27-.03,1.42.4,2.84.52,4.26.04.5-.09,1.14-.38,1.53-2.03,2.67-.11,5.12.47,7.56.67,2.84,2.04,5.48,3.23,8.16,1.11,2.49,3.45,3.79,5.25,5.6.28.29.81.3.96.79,1.7,5.41,6.78,7.43,10.67,10.64.76.63,1.78.39,2.7.4"/>
    <path class="cls-2" d="M122.66,55.42c-1.09,1.54-.83,3.13-.42,4.85,1.39,5.79,2.15,11.68,2.3,17.63.03,1.02-.38,1.9.58,2.78.28.26-.35,1.36-.3,2.06.23,3.12-.43,6.19-.46,9.3-.02,2-.52,4-.71,6.01-.15,1.56.75,3.37-1.18,4.46.46,2.84-1.52,5.47-.76,8.33.14.52.52.9.21,1.56-1.68,3.47-2.96,7.21-6.6,9.3-.64.37-1.14.66-1.96.41-1.45-.44-2.92.13-4.23.62-1.11.41-2.22.53-3.33.66-2.44.31-3.38.95-3.84,3.34-.17.88-.56,1.58-.98,2.33-.37.66-.87,1.3-.79,2.12.29,2.92-1.9,4.26-3.92,5.15-4.25,1.88-8.61,3.74-13.34,3.89-2.67.08-5.02,1.54-7.75,1.28-2.43-.23-4.91.04-7.36-.08-1.97-.1-4.01-.01-5.82-1.12-.99-.61-2.08.25-3.09-.02-4.48-1.22-8.96-2.46-13.18-4.45-1.57-.74-2.86-1.87-4.07-3.1-.13-.13-.36-.25-.37-.39-.32-2.54-1.54-4.78-2.32-7.17-.07-.21.11-.51.18-.77"/>
    <path class="cls-1" d="M53.09,105.03c-.2,4.43.87,8.7,1.75,12.98.41,2.01.96,3.99,1.33,6.01.34,1.85-.31,2.58-2.11,2.3-3.69-.58-7.37-1.27-11.05-1.92-.71-.12-1.47-.48-2.12-.34-1.6.34-2.77-.07-3.7-1.39-.45-.64-1.02-.91-1.94-.63-1.27.39-2.33-.61-3.45-1-1.4-.49-2.68-.76-4.09-.31"/>
    <path class="cls-1" d="M154.44,46.7c.18,2.13,1.62,3.5,3.68,3.49,1.92-.01,3.31-1.29,3.5-3.1.24-2.29-1.37-3.83-3.12-4.24-1.93-.45-3.82,1.25-4.26,3.66"/>
    <path class="cls-2" d="M17.63,61.62c-2.89,1.16-3.23,3.99-4.02,6.41-1.07,3.25-1.48,6.67-1.98,10.06-.03.19-.03.39,0,.58.46,2.97-.22,5.94,0,8.91.23,3.15.79,6.26,1.62,9.28.44,1.58,1.78,2.78,3.23,3.7"/>
    <path class="cls-2" d="M107.35,105.22c-1.28-.34-2.6-.29-3.87-.17-5.48.53-10.96,1.05-16.58.57-.53,2.13-.48,4.19-.8,6.19-.57,3.56-1.14,7.11-1.8,10.65-.2,1.08-.28,2.19-.39,3.29-.01.12.21.31.17.38-1.96,3.15-1.5,6.97-2.89,10.28-.49,1.17-.84,2.39-.4,3.68"/>
    <path class="cls-2" d="M108.71,77.12c-.54,1.83.15,3.62.17,5.43.06,4.26.08,8.53,0,12.79-.05,2.33-.34,4.65-.56,6.98-.18,1.86.06,2.06,1.95,1.95,3.25-.18,6.35-1.07,9.49-1.77.89-.2,1.71-.27,2.52.21"/>
    <path class="cls-2" d="M86.62,73.44c-1.89.43-3.75-.13-5.62-.22-6.85-.33-13.7-.28-20.54.04-2.33.11-4.72.08-6.96.48-6.25,1.12-12.63,1.3-18.81,2.84-.82.2-1.56.05-2.33-.03"/>
    <path class="cls-1" d="M52.13,104.06c-3.24.62-6.34-.44-9.5-.76-2.66-.27-5.25-1-7.94-1-1.89,0-2.47.61-2.12,2.53.4,2.21.76,4.43,1.38,6.58.75,2.59,1.17,5.28,2.28,7.77.38.86.17,1.8.2,2.71"/>
    <path class="cls-1" d="M108.32,104.44c-1.4,1.02-.63,2.61-.88,3.89-.77,3.98-1.51,7.95-2.81,11.8-.35,1.04-.52,2.05-.18,3.1"/>
    <path class="cls-2" d="M101.93,125.37c-.82-.73-1.74-.63-2.71-.39-4.01.96-8.15,1.09-12.21,1.73-.9.14-1.86.14-2.71-.36"/>
    <path class="cls-2" d="M101.15,46.51c-2.93.77-5.82-.11-8.72-.22-2.85-.11-5.7-.48-8.53.22"/>
    <path class="cls-1" d="M119.95,50.96c-2.31.59-4.32-.56-6.38-1.2-2.43-.75-4.9-1.33-7.37-1.91-1.07-.25-2.1-.28-3,.25-2-.87-1.73-2.74-2.3-4.29-1.07-2.92-2.41-5.76-3.86-8.53-.73-1.39-1.22-2.73-1.12-4.29"/>
    <path class="cls-1" d="M62.78,25.97c-1.49-.91-2.87-.63-4.48-.06-3.56,1.28-7.22,2.23-10.67,3.87-1.48.7-2.33,2-3.65,2.79-.1.06-.19.25-.19.38.08,3.41-2.44,5.77-3.52,8.71-.61,1.65-1.43,3.22-2.1,4.86-.38.92-.17,1.93-.21,2.9"/>
    <path class="cls-2" d="M114.33,122.47c-.15,1.67-1.17,2.8-2.32,3.88-2.44,2.29-5.26,4.05-7.98,5.96-1.08.76-2.42,1.25-3.85.81"/>
    <path class="cls-1" d="M124.02,79.45c-2.37.23-4.53-.73-6.78-1.18-2.7-.54-5.3-1.62-8.15-1.39-.36.03-.77-.6-1.16-.92"/>
    <path class="cls-2" d="M69.57,1.94c.37,4.97.12,9.95.19,14.92"/>
    <path class="cls-2" d="M82.74,45.73c-1.65.56-3.35.42-5.04.37-6.16-.16-12.3.26-18.4,1.03-.74.09-1.29-.26-1.94-.24"/>
    <path class="cls-1" d="M35.85,51.35c-2.67-.73-4.89,1.01-7.36,1.39-.81.12-1.57.59-2.33.94-1.56.72-3.19.76-4.85.58"/>
    <path class="cls-1" d="M32.94,102.31c-.69-.9-1.52-1.3-2.72-1.19-2.34.22-4.56-.59-6.77-1.19-1.88-.51-3.72-.76-5.63-.53"/>
    <path class="cls-1" d="M31.2,77.7c-1.99-.56-3.75.52-5.61.81-1.71.27-3.37.86-5.04,1.32-.96.27-1.93.27-2.91.19"/>
    <path class="cls-2" d="M80.03,24.42c.8-3.07-1.19-5.69-4.86-6.54-3.72-.86-7.51-.82-11.23.33-3.2.99-4.73,3.6-3.87,6.79"/>
    <path class="cls-3" d="M125.95,26.84c3.61-.57,5.79,2.08,8.29,3.84,1.14.8,1.9,2.18,2.39,3.62.41,1.2,1.06,2.31,2.11,3.11"/>
    <path class="cls-1" d="M57.74,127.31c-.06,3.54,1.83,6.49,2.93,9.68.33.97.63,1.89.55,2.92"/>
    <path class="cls-1" d="M147.85,27.13c-.8.84-1.71,1.52-2.69,2.17-1.87,1.24-3.38,2.83-4.33,4.98-.82,1.86-2.41,3.37-2.31,5.64.03.77.43,1.53.12,2.32"/>
    <path class="cls-1" d="M138.94,11.82c0,.78-.13,1.58.03,2.32.47,2.2-1.19,3.53-1.92,5.26-1.06,2.51-2.88,4.24-5.11,5.56-.95.56-1.83,1.05-2.3,2.08"/>
    <path class="cls-1" d="M139.13,17.05c.8.84,1.43,1.68,1.82,2.88.63,1.95,2.04,3.54,3.83,4.63.41.25.81.51,1.12.84,1.45,1.54,3.3,1.73,5.24,1.64"/>
    <path class="cls-1" d="M29.84,143.88c-3.77.1-6.12,2.33-8.4,5.08-1.99,2.39-1.54,4.99-1.67,7.61"/>
    <path class="cls-1" d="M6.39,128.47c2.78,1.47,3.32,3.96,1.38,5.83-1.01.98-2.16,1.24-3.29.71-1.27-.6-2.28-1.73-2.11-3.24.16-1.44.83-2.73,2.47-3.1.44-.1.9-.13,1.36-.2"/>
    <path class="cls-1" d="M20.15,137.19c.13.13.27.25.39.39,1.56,1.99,2.87,4.2,5.22,5.45.36.19.86.53.79,1.13"/>
    <path class="cls-1" d="M20.06,132.54c-.03,1.49.51,3.42-.22,4.36-1.36,1.74-2.06,4.12-4.32,5.16-.87.4-1.71.96-2.14,1.91"/>
    <path class="cls-1" d="M9.3,143.78c3.95-.27,6.71,1.64,8.7,4.85.53.85,1.08,1.62,1.95,2.12"/>
    <path class="cls-2" d="M132.54,127.12v5.73c-1.54,1.64-3,3.19-4.46,4.73"/>
    <path class="cls-2" d="M124.79,137.29c3.59-.31,5.37,2.28,7.38,4.54.39.44.37.88.37,1.37,0,1.61,0,3.23,0,4.84"/>
    <path class="cls-2" d="M9.59,20.54v4.37c-2.21,1.98-3.71,5.41-7.65,4.64"/>
    <path class="cls-2" d="M18.6,29.45c-.45,0-.92.07-1.35-.01-2.17-.4-3.6.58-5.09,2.09-2.06,2.09-3.01,4.34-2.37,7.22"/>
    <path class="cls-1" d="M140.68,137.29c-.26.06-.4.22-.78.16-2.32-.37-3.95.76-5.26,2.63-.5.72-.94,1.63-1.9,1.96"/>
  </g>
</svg>