<?xml version="1.0" encoding="UTF-8"?>
<svg id="Layer_2" data-name="Layer 2" xmlns="http://www.w3.org/2000/svg" viewBox="0 0 165.09 219.76">
  <style>path,polyline,line,circle,rect,ellipse{fill:none;stroke:#000;stroke-width:0.8px;stroke-linecap:round;stroke-linejoin:round}</style><g id="Layer_1-2" data-name="Layer 1">
    <path d="M46.5,139.88c1.49,4.82,1.47,4.96-.93,8.54-2.25.18-3.06-2.04-4.92-3.02-1.3,2.26-2.41,4.64-3.94,6.72-1.42,1.94-2.69,3.92-6.07,1.95-3.56-2.08-4.66-4.09-2.55-7.6.68-1.12,1.55-2.12,2.65-3.6-4.57.82-8.88,1.55-14.25-.11,3.89-3.22,6.98-5.81,11.02-6.76,2.23-.52,3.6-1.46,4.37-3.7,1.1-3.21,4.07-5.3,5.41-8.49.55-1.31,2.4-2.4,3.8-.13.85,1.37,1.92.81,3.18.09-1.01-2.6-1.88-5.25-.95-8.38-4.91,1.47-9.25,5.01-14.13,2.35-2.13-1.16-2.95-3.89-2.84-6.85,6.75-5.4,14.88-5.2,22.35-7.02-4.95-2.67-9.24-1.12-13.39,1.52-2.31-3.16-2.65-6.63-3.39-9.9-6.18,3.65-3.97,10.16-5.81,15.2-.13.07-.25.15-.38.22-1.61.88-2.86,3.17-4.97,2.16-2.24-1.08-1.41-3.59-1.63-5.89-3.29.27-6.91,2.54-9.51-.67,2.7-8.63,11.47-6.37,17.09-9.83-3.96-.42-7.96,1.02-11.77-1.94,3.36-5.68,8.53-6.89,14.32-6.42,3.16.25,5.56-.29,6.71-3.92-5.16.61-10.73,7.11-15.33-1.16-1.94,1.16-2.98,3.62-5.56,3.88-3.57.36-3.66-2.09-3.8-4.76-3.86.48-7.55,2.14-11.3.48,2.06-6,6.83-8.41,15.16-7.87-3.03-1-5.54-2.13-5.26-6.15.24-3.48,1.59-4.12,4.5-2.97,1.84.73,3.39,1.85,4.36,3.59,1.79,3.22,4.27,4.27,7.97,2.55-.2-2.22.95-4.88-2.33-6.49-.42,1.63,1.41,2.76.63,4.2-4.41-1.38-4.53-1.8-2.82-6.01,1.13-2.77-.23-3.92-2.98-3.51-4.92.74-9.35-.59-13.54-3.03-1.01-.59-2.23-1.17-2.08-2.59.15-1.48,1.51-1.69,2.65-1.89,2.17-.38,4.36-.63,7.29-1.04-1.54-1.66-2.82-3.11-4.18-4.47-.75-.74-1.7-1.39-1.09-2.58.61-1.2,1.76-1.53,3.02-1.3,3.65.67,7.2,1.68,10.34,3.73,1.66,1.09,3.11,1.9,4.12-.65-7.51-4.81-7.82-5.22-7.16-9.68-1.15-.17-2.31-.25-3.43-.53-.89-.22-1.6-.84-1.68-1.84-.21-2.77,3.85-6.2,6.57-5.39,4.57,1.37,8.85,3.16,11.53,7.57,1.79,2.94,4.71,1.78,6.56.53,4.61-3.12,9.68-3.17,14.83-3.28-2.49-4.58-4.49-5.34-8.27-2.54-4.21,3.12-8.7,3-13.77,2.22,1.36-5.51,5.68-6.37,10.1-7.34-1.12-.77-2.2-.35-3.21-.14-1,.2-1.98.58-2.95.92-3.4,1.19-6.68.88-9.86-.76-.92-.48-1.9-.97-1.85-2.23.04-1.26,1.1-1.64,2-2.13,2.16-1.18,4.65-.53,7.01-1.24.37-2.56-2.98-4.2-1.72-6.91,4.73-.73,7.68.88,10.24,5.58,2.51,4.61,3.57,5.41,9.5,7.15-.25-3.91-1.24-7.93,2.14-11.69,5.63,4.8,6.05,10.98,5.44,17.63,1.21-2.03-.13-5.7,3.48-5.47,2.81.18,2.09,3.06,2.61,6.28,2.85-8.83,7.86-12.37,16.43-8.82-.2-2.68-1.26-4.05-3.28-3.73-4.17.65-6.99-2.83-10.8-3.18-.72-.07-1.17-.89-1.08-1.72.11-1.05.8-1.51,1.8-1.56,2.48-.12,4.95-.22,8.12-.37-3.43-3.99-6.35-7.79-4.59-13.69,4.27,2.75,8.4,4.72,9.49,10.3,1.23-1.33,2.12-3.03,4.19-2.38,2.08.66,2.01,2.72,2.87,4.16.34.03.63.11.91.06,1.83-.34,3.64-3.42,5.35-.92,1.32,1.93.49,4.63-.97,6.66-1.46,2.03-3.44,3.51-6.43,4.9,5.83-.11,10.33,1.6,14.81,3.54,1.18-2.47-1.7-5.05.67-7.45,2.79-.12,4.06,3,6.62,3.51.57-9.42,2.14-11.79,9.18-13.58,2.03,5.02-2.57,8.2-3.69,12.23,1.4.75,2.18-.16,3.03-.61,1.39-.73,2.81-2.32,4.35-.87,1.38,1.3.26,3.1-.14,4.58-.78,2.88-2.69,5.04-5.5,5.94-3.4,1.09-4.34,3.17-3.43,6.88,2.49-1.89,5.52-1.3,8.21-3.08,2.68-1.77,2.5,1.56,3.21,3.61,1.07-6.33,4.93-9.42,10.91-10.88,2.23,4.57-2.49,7.05-3.17,10.94,2.81.09,5.52,2.74,8.37-.5,2.86,3.79-.08,5.26-2.34,6.53-3.3,1.86-6.82,3.31-10.51,5.06,2.1,1.6,3.91,2.98,5.83,4.44,1.58-1.28,2.94-2.68,4.55-3.64,3.29-1.95,6.14-4.58,10.85-2.59,2.27.96,5.69-.76,8.58-1.31,1.18-.23,2.39-.62,3.2.61.83,1.27-.26,2.19-.77,3.2-1.09,2.17-3.04,3.57-4.7,5.19,2.05,4.71-1.98,9.41-10.43,12.02.93,1.65,2.62-.28,3.46.83,1.61.99-2.23,2.85,1.29,3.68,2.27-1.74,5.18-3.62,8.45-4.78,1.24-.44,2.84-1.11,3.59.38.87,1.73,1.38,3.72,1.61,5.65.1.77-1.37,1.46-2.1.86-2.88-2.39-2.21,1.5-3.97,1.52,5.79,4.19,5.71,4.47-1.78,8.28.58,1.26,1.74.77,2.67.84,3.58.27,7.47-.32,5.69,5.81-.74,2.55,2.91,4.99,2.59,8.05-.85,1.21-1.86.99-2.84.56-2.85-1.28-5.48-4.46-8.82-.91-3.41-2.09-7.42-3.31-9.92-6.71-.77-1.05-1.36-2.23-2.24-3.69-1.19,2.31-2.08,4.62-4.61,6.66,7.06-.26,8.53,5.64,12.31,7.88-.38,2.6-2.52,2.09-3.01,3.59.47,1.81,3.16,1.48,3.61,3.5-.55,2.52-2.99,1.79-4.89,2.72,6.3.19,10.31,3.21,12.75,8.58-1.45,1.95-3.88,2.05-5.21,4.05-.99,1.49-2.8.02-3.48-1.3-1.05-2.05-2.92-2.77-4.73-3.71-1.62.78-.38,4.14-3.11,3.51-4.08-.94-5.51-4.56-7.18-7.83-4.61,3.72-11.75,2.92-14.35,8.81-2.7-.35-1.55-2.79-3.19-3.55-.24,1.45-.46,2.82-.67,4.08.3.23.4.38.52.39q10.77,1.29,12.66,12.31c2.49,14.56-3.6,20.67-18.23,18.27-.54-.09-1.09-.13-2.19-.26,2.76,6.53,5.55,12.5,10.07,17.42,2.59,2.81,4.64,6.13,7.88,8.34,1.22.83,1.8,2.03.76,3.41-1,1.32-2.35,1.92-3.86.98-1.95-1.22-3.8-2.62-6.74-4.68,3.21,7.97,7.11,14.15,10.91,20.39.93,1.53,2.74,3.27.85,5.12-1.75,1.72-4.12,2.35-6.57,1.76-2.2-.53-2.6-2.62-3.35-4.36-4.16-9.57-8.32-19.14-12.97-29.86-.03,5.35.93,9.3,2.06,13.17,2.77,9.5,5.84,18.9,10.87,27.5,1.13,1.93,2.18,3.66-.4,5.23-2.89,1.76-4.23.04-5.5-2.29-5.26-9.64-8.8-19.96-12.04-30.39-.52-1.66-1.03-3.32-1.6-5.17-5.64,8.73-.16,16.83.72,25.21-5.43-4.69-5.7-11.27-6.51-17.57-6.62,1.45-7.71,3.31-5.51,9.05.89,2.32,1.88,4.59,2.77,6.74.62.08.91.18,1.18.14,1.3-.22,2.22-2.4,3.86-.8.85.82.98,1.83.19,2.78-1.17,1.4-2.47,2.7-4.51,1.94-1.36-.51-2.99-.89-3.63-2.36-2.77-6.38-7.43-12.26-5.58-19.96.16-.65-.08-1.39-.19-2.76-2.36,1.53-4.26,2.82-6.21,4.01-1.04.64-2.3,1.07-3.21-.08-.91-1.15-.05-2.26.61-3.21,2.37-3.38,4.78-6.73,7.18-10.09,2.45-3.42,3.67-7.3,4.73-12.12-4.11,2.83-7.08,6.09-11.42,7.32-3.62,1.02-6.6.51-9.5-1.81-4.98-3.98-7.59-9.29-9-15.34-.56-2.43.58-3.95,2.62-5.02,3.73-1.94,7.75-2.86,11.89-3.16,3.86-.28,7.55-1.12,11.68-2.65-3.68-2.64-7.77-3.22-11.41-4.8-6.1-2.65-6.49-3.16-5.34-10.01-2.73.83-1.52,3.38-2.3,5.26-3.29-1.49-5.22-5-8.9-5.52-1.21,4.98,2.81,11.92-6.06,13.26-1.2-2.5-2.01-4.62-2.91-6.96-2.36,3.61-2.25,6.19.16,10.18,1.16-1.17-.88-2.83.77-4.13.55.38,1.13.77,1.71,1.16M80.59,151.38c1.71-1.4,3.44-2.78,5.11-4.22.95-.82,2.53-1.52,1.5-3.16-.97-1.55-2.51-.67-3.6-.23-4.84,1.98-9.91,2.74-15.05,3.29-4.15.44-7.98,1.78-11.61,4.15,1.04,4.39,2.89,8.2,5.85,11.34,4.88,5.17,8.63,5.43,14.3,1.17,4.88-3.66,8.25-8.48,11.2-14.78-6.35,5.16-12.68,8.9-16.37,15.76-2.53-2.43-.97-4.01.09-5.43,2.22-2.98,5.3-5.1,8.58-7.9M107.5,148.72c-1.21-.23-2.39-.99-4.13,0,5.16,2.43,10.09,4.01,15.52,3.39,3.82-.43,6.13-2.42,6.69-6.4.65-4.56.08-8.98-.87-13.95-7.64,6.72-18.87,4.14-26.79,12.2,8.1.53,14.75,3.24,22.86,4.73-5.07,3.51-8.84,1.07-13.28.04M103.01,73.87c-.08-6.24,1.72-11.79,6.45-16.29-4.02-1.01-6.24-.52-8.01,2.08-3.27,4.82-2.69,9.68.33,14.46-4.08,4.2-.66,8.24.5,12.14.85,2.86,3.2,4.5,6.61,3.55,1.25-.35,2.15.72,3.12,1.37,3.71,2.48,7.07,1.61,10.92-1.25-3-.88-5.44-1.4-7.73-2.3-6.66-2.63-13.74-6.64-12.19-13.76M90.22,174.18c-2.53,4.38-5.32,8.67-5.25,14.3,5.53-2.02,9.94-4.39,11.4-10.43,1.67-6.86,1.78-13.73,1.02-20.65-.22-2-.57-4.23-2.91-6.59.11,8.49-.24,15.97-4.26,23.37M96.49,55.75c2.19.8,2.15.73,7.44-2.23,5.88-3.28,6-8.82,3.91-14.13-1-2.53-4.12-2.78-6.31-3.13-2.08-.34-2.98,2.13-3.07,4.13-.18,3.94-2.07,3.29-4.36,1.34-.57,1.98-.96,3.54-1.47,5.07-.47,1.39-.47,2.58.82,3.53,1.33.97,2.16-.1,3.11-.72,2.65-1.72,4.8-3.85,5.93-6.89.52-1.41.88-3.2,3.26-2.69.02,4.94-2.23,8.39-6.04,11.09-1.41,1-2.79,2.2-3.21,4.62M59.95,56.36c.57-3.69-.52-6.59-3.97-9.19-.2,1.34-.39,1.91-.36,2.47.46,7.11,1.1,14.1-7.34,17.75-1.79.77-4.74,3.69-2.47,5.97,2.12,2.13,5.21.52,7.46-1.45,1.03-.9,1.97-1.89,1.88-3.32-.31-4.61,2.16-8.09,4.8-12.23M79.2,107.69c4.34,1.33,8.67,2.66,13.02,3.99.36-1.98-2.43-2.14-1.64-3.91.62-1.3,2.03.25,2.78-1-3.14-2.39,1.78-5.8-1.31-8.59-2.05.13-4.4.07-6.68.48-4.91.89-8.14,5.17-6.17,9.02M121.88,63.18c-.81.27-1.8.36-1.55,2.16,2.24,0,4.71-.52,6.8.14,2.24.71,3.92,2.85,3.61,5.48-.31,2.61-2.53,4.22-4.17,6.06-1.95,2.19-4.51.48-6.78.68,4.05,1.42,8.13,3.23,11.72-.82,2.32-2.62,3.62-5.83,1.92-8.91-2.03-3.68-4.58-7.32-10.77-8.79,3.25,3.09,2.24,3.88-.78,4M57.33,84.41c-.06-3.92,3.84-7.36,1.45-11.99-5.55,4.59-4.96,10.7-4.57,16.35.29,4.16,3.53,6.47,7.83,7.02.54-4.6-4.09-6.76-4.72-11.38M28.7,64.21c1.27.89.54,2.06.55,3.19.06,3.69,2.88,5.1,5.79,5.59,2.35.4,5.58,1.59,6.85-2.35-9.33-1.35-10.4-2.44-12.39-11.57-.51-2.32-1.52-4.54-2.42-7.14-3.5,6.15-3.24,8.2,1.61,12.29M50.83,87.45v-10.96c-3.05,1.52-6.94-1.07-8.45,3.18-1.4,3.94-1.27,7.67,2.09,11.01,1.41-2.3.91-4.54.96-6.69.09-3.72.04-3.72,3.06-3.73q-.62,11.38,3.23,11.77c-.26-1.34-.52-2.61-.88-4.58M78.26,29.06c-.59.58-1.61.9-1.17,2.37,7.14.53,14.61-.88,21.87,1.76.8-2.24-.16-3.97-2.81-5.01-5.88-2.29-11.68-2.65-17.88.88M89.8,51.56c-4.31-1.79-8.88-.09-13.32-1.61-.08,2.48,1.15,3.65,2.37,4.58,2.23,1.69,5.28,1.45,7.67,3.02,2,1.31,4.55,1.31,5.97-.67,1.58-2.2-.55-3.66-2.69-5.32M82.84,94.81c.33-.44.65-.87,1.57-2.1-7.03,1.8-13.32.29-19.89.28,4.37,7.91,11.78,8.62,18.33,1.83M107.52,93.74c-4.37-1.37-6.08,1.34-7.39,4.72,3.87,2.74,2.75,6.47,2.27,10.23,1.05-3.79,4.09-5.18,7.16-6.61,2.44-1.13,4.27-3.04,3.74-5.82-.49-2.56-3.11-2.16-5.77-2.52M121.61,127.83c-9.3-2.05-14.53,4.74-20.77,9.37,4.59-2.15,9.61-2.53,14.36-3.86,2.77-.77,6.2-1.16,6.41-5.51M77.07,64.82c-4.3.35-6.94,2.4-7.38,7.19,3.55-2.7,7.16-4.29,11.3-3.44,5.38,1.11,5.03,6.26,6.36,10.46,2.52-2.89,3.66-6.51,1.11-8.2-3.33-2.21-6.02-6.06-11.39-6.01M116.36,81.78c-.35-5.2-5.97-6.79-7.39-11.45-3.38,2.65-4.5,5.41-1.99,8.86,2.68,3.68,6.53,4.98,9.38,2.59M63.02,44.13c-2-3.14-3.63-6.88-8.79-5.41,1.78,6.39,8.94,9.41,9.21,16.45,3.73-3.67,1.5-7.07-.43-11.04M84.17,89.55c5.65-1.55,7.13-3.5,6.58-9.03-5.52,6.63-12.46,8.22-20.64,5.6.61,3.09,2.48,3.69,4.25,4.32,3.12,1.11,6.06-.48,9.8-.88M127.83,89.66c-1.39,1.33-3.43,2.04-4.35,4.23,5.79,2.1,9.45-.93,12.92-4.43,1.96-1.97,2.8-4.16,1.32-7.17-3.11,2.77-5.99,5.24-9.89,7.37M139.6,66.79c-1.78-2.64-3.5-5.36-7.65-5.49,7.03,4.69,3.33,12.05,4.52,18.43,5.77-4.36,6.18-6.04,3.12-12.94M86.28,94.88c4.51,1.82,6.88-1.23,9.25-4.13,2.78-3.4,3.03-7.01.27-11.13-1.32,6.2-5.09,10.67-9.52,15.27M79.37,45.32c-1.51-6.78-1.83-7.01-7.76-6.16-1.18.17-2.96.29-2.5,1.63.66,1.94-1.63,5.04,1.21,5.65,3,.64,6.29-.11,9.46-.25-.06-.13-.13-.26-.41-.86M46.93,111.04c-.28,2.56-.98,5.15.15,7.71,4.44-1.56,4.81-1.99,5.8-6.53-1.21.56-1.3,2.84-3.83,2.02.68-6.48,6.94-8.57,10.35-12.85-5.66,1-9.81,3.84-12.47,9.65M129.79,56.97c-1.58-3.96-4.57-6.06-8.77-6.23-3.33-.14-5.99,1.2-8.34,4.47,2.66-.3,4.44-.03,6.33.45,3.56.91,7.28,1.2,10.79,1.32M37.64,47.46c5.62-1.25,10.18,1.16,14.42,5.02,1.28-4.59-.3-6.99-3.82-8.38-4.08-1.61-8.89-.26-10.6,3.36M63.93,58.46c-4.49,3.32-5.87,6.16-4.63,10.36,4.27-3.65,7.32-8.51,13.4-10.12-3.23-2.18-5.71-1.5-8.77-.25M45.61,56.19c1.06-2.21.71-4.04-1.66-5.04-2.66-1.13-5.74-1.46-7.87.4-1.9,1.67-1.05,4.4.3,6.43,2.56,3.84,6.55,3.27,9.23-1.79M123.54,100.53c4.06,2.88,3.37,8.34,6.18,12.4,1.91-5.5.57-11.77-3.31-14.61-1.76-1.29-4.18-2.51-6.62-.72.68,1.69,2.17,1.84,3.75,2.93M145.15,52.98c-2.23,2.23-5.71,2.87-7.73,5.87,3.02,1.61,5.7-.33,8.83.35-.92-2.86.98-3.6,2.69-4.74,1.64-1.1,3.59-2.05,4.5-4.45-3.2-.5-5.45,1.16-8.29,2.98M76.69,26.08c-6.7-.4-13.02,8.19-11.47,14.98,2.96-5.25,7.39-9.75,11.47-14.98M132.35,81.69c.13-.51.25-1.02.65-2.66-4.41,4.53-8.67,3.61-12.94,2.08-.86,1.41-1.6,2.63-1.58,4.13,5.98,2.85,10.66,1.8,13.86-3.56M79.01,81.16c-.93,1.79-3.16,1.19-4.52,2.36,4.62,2.03,7.85,1.19,9.13-2.31,1.72-4.67,0-8.16-4.98-9.71,2.44,2.98,2.32,6,.37,9.66M92.85,75.12c.18.8-.33,1.82.84,2.4,2.94-2.9,4.17-6.12,1.29-9.66-1.87-2.29-3.98-4.83-8.09-2.59,3.04,2.66,5.78,5.18,5.96,9.86M109.57,61.7c-1.17,1.64-2.38,3.26-2.07,5.91,4.81-1.61,7.09-6.44,11.71-7.99-3.95-3.39-6.54-.7-9.64,2.07M44.83,65.16c-1.12-1.65-2.9-1.94-4.64-1.99-2.74-.07-5.3-.32-6.59-3.83-1.51,3.82.21,5.91,2.44,7.35,2.99,1.93,6.09,1.68,8.79-1.52M125.19,109.18c-.85-4.09-2.69-7.32-7.12-8.41-1.31,3.37,1.91,8.43,7.39,11.75-.07-1.01-.12-1.87-.27-3.35M124.38,204.09c.71-.88.22-1.72-.21-2.45-3.6-6.17-7.57-12.14-10.64-18.66,2.95,6.57,4.71,13.55,7.68,20.07.56,1.22,1.26,2.01,3.16,1.04M80.38,133.83c1.86.63,3.73,1.27,6.46,2.19-2.3-3.49-4.06-6.16-5.94-9.01-1.37,3.16-5.24.79-6.91,3.42,1.65,1.63,3.81,2.22,6.39,3.4M65,89.63c.82.23,1.64.69,2.7-.35-2.01-3.05-2.88-6.85-5.53-10-2.88,5.09-2.43,6.76,2.83,10.35M53.11,55.96c-2.74-3.05-4.08-.21-5.22,1.51-1.1,1.66-2.16,4.31.28,5.36,2.2.95,3.59-1.35,4.4-3.31.38-.92.43-1.98.54-3.57M118.72,113.15c-.93-2.41-1.79-4.89-4.76-5.54-2.35,4.42-1.03,6.95,4.67,9.43.91-1.04.19-2.19.09-3.88M67.13,129.24c3.92-1.82,7.21-4.26,8.68-8.75-4.58,1.2-9.01,2.27-8.68,8.75M51,95.62c-2.6-.88-5.2-1.26-8.07-.23,3.82,4.43,7.42,5.13,11.45,2.5-.62-1.1-1.71-1.55-3.38-2.27M47.77,135.44c.36.12.96.44,1.05.34,2.13-2.62,1.44-9.02-1.51-12.08-.91,3.93-.97,7.57.46,11.74M89.7,44.77c-.04-1.63-.62-3.06-2.45-2.9-3.34.3-3.02,3.62-4.91,5.91,3.27.27,6.31,2.21,7.36-3.01M51.58,40.64c-5-4.64-8.87-4.62-11.03.1,1.6-.1,3.21-.43,4.75-.23,1.57.2,3.05.97,4.6,1.36.7.17,2.08,1.42,1.67-1.23M66.9,72.08c.5-1.74,1-3.48,1.54-5.35-5.62.89-7.33,4.7-4.42,9.18,1.39-.68,2.1-1.91,2.88-3.83M117.22,72.84c-.04-2.48.67-5.09-1.2-7.56-2.41,1.73-4.39,3.62-3.27,6.48.53,1.35,1.98,3.53,4.47,1.08M67.52,115.56c-.56-1.72-1.58-1.67-2.55-.48-2,2.44-3.02,5.13-1.5,8.67,1.92-2.6,5.15-3.91,4.05-8.19M34.55,41.1c-3.72,1.56-4.95,4.38-4.36,9.19,2.53-3.04,4.66-5.31,6.42-7.84.68-.98-.58-1.34-2.06-1.35M73.18,62.38c3.91-1.34,7.73-.39,11.86.86-.37-3.71-2.58-4.67-5.19-4.32-2.57.35-5.13,1.21-6.67,3.46M35.25,141.97c-2,2.53-3.73,5.11-1.54,8.78,2.96-2.45,3.7-5.34,3.67-8.51-.01-1.34-.8-1.35-2.13-.28M55.98,118.35c3.3-3.93,3.44-5.7.51-10.3-1.32,4.01-.96,8-3.19,12.41,1.37-1.06,1.82-1.41,2.68-2.11M70.85,118.64c2.28-.86,4.1-2.37,6.18-4.09-1.51-1.63-2.81-3.15-4.98-2.32-1.95.74-1.31,2.69-1.42,4.22-.04.58.05,1.17.23,2.2M23.09,36.26c1.87,1.45,3.8,2.73,6.73,2.82-2.19-3.96-4.99-6.06-8.97-6.77-.32,1.92.97,2.6,2.24,3.95M83.47,122.08c2.1,4.27,4.2,8.54,6.29,12.81-1.69-6.3-3.68-12.43-7.99-17.47.48,1.36.96,2.72,1.69,4.66M40.04,109.49c.67-.24,1.35-.49,2.31-.84-8.03-.45-10.93.61-12.04,4.28.26.1.58.35.77.27,2.81-1.17,5.61-2.38,8.97-3.71M116.56,39.17c.03-.14.1-.3.07-.43-.03-.12-.22-.32-.23-.31-3.75,2.34-4.41,5.88-1.63,10.4,2.61-2.86.01-6.49,1.79-9.66M66.47,100.5c-.48-.31-1.47-.68-1.45-.21.08,2.88-.33,5.91,1.53,8.97,2.46-3.08,2.19-5.7-.07-8.76M18.49,55.26c-3.07-.11-6.17-1.59-9.55.2,3.85,2.33,7.53,2.56,12.03,1.17-.99-.63-1.45-.92-2.48-1.37M112.67,120.27c-.13-3.38-1.89-5.25-5.33-5.98,1.72,2.81.86,6.71,4.66,8.1.21-.52.42-1.05.68-2.12M73.92,53.04c-1.26-1.97-1.79-5.08-5.68-3.67,1.25,3.41,3.37,5.26,6.94,6.02-.46-.87-.72-1.38-1.27-2.35M90.92,143.14c.28,1.49.65,3,2.47,3.21,1.07.12,1.54-.77,1.59-1.73.07-1.37-.19-2.82-1.42-3.53-1.34-.77-2.15.21-2.63,2.05M25.45,75.58c-2.32.43-4.69.8-3.81,4.62,3.1-2.34,6.02-4.24,9.62-4.67-1.71,0-3.42,0-5.82.04M105.12,30.62c-1-.28-1.73-1.49-3.08-1.04.59,3.39,2.83,4.52,5.73,5.04.99-2.48-.83-2.93-2.65-4M62.14,105.21c-2.41-.96-2.65.75-2.32,2.24.37,1.69.9,3.51,2.55,4.81,1.61-2.45.04-4.46-.23-7.05M37.52,98.03c-.06-2.04.47-4.3-1.89-5.87-.98,2.35-.77,4.43-.33,6.4.38,1.7,1.34,1.9,2.22-.52M52.32,23.92c.53,1.25.6,2.85,2.39,3.28q.66-4.23-1.63-6.62c-1.08.67-.9,1.74-.76,3.34M56.69,125c6.01,1.06,1.66-2.81,2.32-4.31-1.06,1.28-4.98.76-2.32,4.31M23.83,93.58c1.77-.33,3.51-.72,5.57-2.18-3.83-.24-6.85-.34-9.85,2.6,1.7-.15,2.68-.25,4.28-.42M96.91,97.69c1.05-2.04,2.1-4.08,3.15-6.13-1.74.72-2.78,1.74-3.84,2.73-1.47,1.38-1.61,2.62.69,3.4M18.69,50.96c.92.2,1.68,1.35,3.06.26-1.72-2.42-4.15-3.3-7.34-4.42.85,2.58,2.36,3.18,4.27,4.16M39.93,92.09c.48.4,1.45,1.45,1.18-.11-.32-1.88-1.46-3.61-2.38-5.74-2.66,2.9-.18,4.01,1.19,5.85M106.5,165.29c-.25-.34-.49-.67-.74-1.01-.17.08-.33.16-.5.25,1.64,3.7,3.27,7.41,4.91,11.11.24-.11.47-.21.71-.32-1.39-3.18-2.78-6.37-4.39-10.03M105.66,128.92c1.2-.75,2.4-1.51,3.64-2.29-2.45-2.44-3.02-2.06-5.18,3.31.44-.29.8-.51,1.54-1.01M120.46,42.94c.13-1.4.47-2.82-.32-4.49-1.6,2.21-2.12,4.32-1.34,7.33.69-1.11,1.07-1.71,1.66-2.83M151.57,90.93c.23.15.45.3.68.46.07-.13.23-.27.2-.37-.61-2.28-.26-5.13-3.42-6.63-.5,3.07,2.12,4.07,2.54,6.55M67.49,81.22c.75.64,1.4,1.48,2.84,1.15-.75-1.95-1.48-3.83-2.29-5.94-1.27,1.59-1.72,2.89-.55,4.8M133,102.32c1.65,3.98,1.9,4.08,5.61,2.1-1.79-.8-3.53-1.58-5.61-2.1M26.93,139.12c-.85.69-2.4.53-2.69,2.22,2.63-.7,5.4-.36,7.47-2.56-1.53-.74-2.89-.39-4.78.34M90.15,121.49c.32,1.64.64,3.29.96,4.93.29-3.89-.06-7.66-1.91-11.16.29,1.85.58,3.69.96,6.23Z"/>
    <path d="M83.36,101.46c.84.02,1.51-.03,1.97.25,1.59.98,4.39.95,3.83,3.88-.26,1.36-1.53,1.85-2.75,1.17-2-1.11-5.08-1.68-3.05-5.31Z"/>
    <path d="M107.68,97.11c2.66.14,2.56,1.42,1.4,2.84-1.07,1.31-2.25,2.67-4.47,2.57-1.06-2.85.87-4.09,3.06-5.41Z"/>
    <path d="M40.3,57.65c-1.39,2.03-2.32.9-2.98-.3-.85-1.54-.76-3.29.46-4.53,1.35-1.37,3.07-2.15,5.05-.84-.21,2.27-3.58,2.8-2.53,5.66Z"/>
  </g>
</svg>