<?xml version="1.0" encoding="UTF-8"?>
<svg id="Layer_2" data-name="Layer 2" xmlns="http://www.w3.org/2000/svg" viewBox="0 0 129.05 173.25">
  <style>path,polyline,line,circle,rect,ellipse{fill:none;stroke:#000;stroke-width:0.8px;stroke-linecap:round;stroke-linejoin:round}</style><g id="Layer_1-2" data-name="Layer 1">
    <path d="M23.71,9.41c2.46-1.05,4.53-2.03,6.47-3.49,3.56-2.69,7.62-2.94,11.74-1.16,10.59,4.55,17.11,12.67,20.52,23.49,1.6,5.08,3.78,9.91,6.25,14.62,1.11,2.11,2.5,2.76,4.64,1.82,2.27-1.01,4.85-1.47,6.66-3.34,2.91-2.99,2.77-7.32-1.35-12.28-4.76-5.73-3.97-12.63-3.51-18.76.66-8.78,9.13-12.53,17.29-8.97,1.62.71,3.19,1.57,4.86,2.11,6.44,2.07,8.38,5.17,7.21,11.98-.26,1.49-.32,2.87.14,4.34.81,2.57.34,5.06-1.38,7.08-1.7,1.99-2.19,4.48-3.27,6.71-1.34,2.76-.52,4.76,1.76,6.53,4.28,3.32,9.25,5.22,14.34,6.71,3.51,1.03,5.41,3.06,6.46,6.5,1.86,6.11,3.17,12.39,3.36,18.67.45,14.6,1.79,29.11,3.02,43.65.4,4.7-.15,9.67-1.3,14.26-.85,3.38-2.82,6.88-7.71,6.32-3.06-.35-2.49,2.29-2.6,4.05-.52,7.95-.92,15.9-1.44,23.85-.44,6.82-6.34,10.64-12.86,8.62-4.22-1.3-6.49-3.5-6.61-8.29-.13-5.27-1.15-10.53-1.83-15.79-.2-1.58-.47-3.19-2.13-4.66-2.56,2.93-2.03,6.47-2.43,9.6-.49,3.79-.25,7.66-.47,11.49-.12,2.05-.24,4.73-2.84,4.78-2.49.05-2.28-2.67-2.57-4.46-2.08-12.97-5.1-25.71-8.84-38.31-3.27-10.99-9.77-19.95-16.46-29.03-4.71-6.4-9.53-10.02-17.55-7.39-.14.04-.31.06-.44.02-11.02-3.72-15.5,4.5-20.92,11.27-5.98,7.47-9.47,15.89-10.76,25.31-.22,1.57-.37,3.25-2.37,4.31-1.24-2.39-.86-4.84-.46-7.18,1.79-10.59,6.44-19.87,13.48-27.91,1.72-1.97,2.49-3.88,2.25-6.37-.62-6.41.13-12.87-1.27-19.29-1.18-5.42,4.97-10.49,10.89-8.2,5.96,2.31,10.56,1.9,16.34-.76,7.75-3.56,13.45,1.61,11.27,9.92-1.75,6.67-.75,13.18-.77,19.77,0,2.26,1.84,3.46,3.8,4.72,2.39-3.25,1.29-6.73,1.17-9.92-.28-7.36-1.06-14.7-1.56-22.05-.55-8.1-1.78-9.83-9.43-12.15-4.18-1.26-8-2.59-10.06-7.1-1.64-3.58-5.18.1-7.75-2.17-1.39,6.89-6.07,9.12-11.39,10.66-5.48,1.58-6.84,3.23-6.88,8.71-.06,9.88-.33,19.77.29,29.65.09,1.5.52,3.27-1.76,4.27-1.62-2.94-.62-6.08-.96-9.02-.25-2.13-.43-4.27-2.88-4.96C2.74,79.84.79,73.28.15,65.83c-.33-3.87-.15-7.85,1.14-11.39,3.84-10.52,6.04-21.6,10.76-31.8,2.51-5.42,5.63-10.42,11.67-13.22M30.83,45.19c.74-2.83-.23-5.06-1.98-7.33-2.29-2.97-4.6-6.02-5.7-10.3-2.2,7.42-1.47,15.02-4.81,21.6-1.56-3.38-.16-6.49.28-9.6,1.04-7.37.82-15.09,5.26-21.67.9-1.34.87-2.8-.81-3.73-3.81,1.96-7.03,5.63-9.06,10.92-3.68,9.64-5.97,19.74-9.76,29.36-1.69,4.29-1.47,9.02-1.11,13.58.49,6.28,3.7,9.85,10.06,11.05,0-5.64-.03-11.18,0-16.72.05-7.78,1.93-10.1,9.46-12.14,2.98-.8,6.06-1.52,8.16-5.03M51.52,85.8c1.56-4.91,3.28-9.77,4.63-14.74,1.19-4.4-1.54-7.3-6.03-6.53-1.72.29-3.76.66-4.93,1.76-3.55,3.36-6.58,2.98-10.53.43-2.78-1.8-6.83-2.44-9.41.54-2.46,2.84-.91,6.21.83,9.02,1.26,2.05,2.21,4.19,2.72,6.48.68,3.09,2.59,4.39,5.56,4.66,5.62.52,11.16-.07,17.17-1.62M99.19,27.93c.8-2.37,3.68-4.12,2.1-7.21q-5.01-9.79-16.01-8.15c-.29.04-.59.06-.88.1-1.83.23-2.96,1.29-3.36,3.04-1.02,4.47-3.42,8.66.75,13.33,2.68,3.01,3.83,7.65,8.78,7.6,5.03-.05,6.45-4.47,8.62-8.7M56.14,34.32c-.3,4.38,2.58,7.92,3.1,12.13-5.16-4.07-5.65-10.22-6.68-16.06-3.78,1.96-4.22,5.6-5.87,8.48-2.08,3.62-1.85,6.81,1.6,8.48,7.99,3.87,12.7,4.61,19.83-2.09-6.79-7.66-8.25-18.24-13.43-26.94-.54.17-1.08.35-1.61.52.99,4.91,1.98,9.81,3.07,15.47M84.71,63.18c1.5,3.52,2.94,7.08,4.53,10.56.64,1.4,1.13,3.39,3.25,3.05,1.77-.29,2.47-1.93,3.07-3.48,2.23-5.82,3.32-11.92,4.48-18,.24-1.26.51-2.66-.64-3.56-5.73.58-11.31,1.14-17.18,1.73-.13,3.09,1.66,5.94,2.5,9.71M38.4,21.13c-2.18,2.42-4.43,4.73-7.22,6.48-1.55.98-2.67,2.23-2.21,4.38.8,3.75,5.01,8.36,8.26,8.37,4.37.02,6.99-2.68,8.66-6.45.54-1.21.95-2.47,1.46-3.7,1.41-3.45-1.15-5.58-2.86-7.8-1.28-1.66-3.05-3.5-6.09-1.29Z"/>
    <path d="M38.54,113.73c-.62,9.94-1.21,19.47-1.84,28.99-.03.39-.36.76-.57,1.18-2.55-3.44-1.41-38.47,1.8-45.56,2.45,5.4.62,10.26.61,15.39Z"/>
    <path d="M58.88,110.59c-2.56-4.95-4.96-9.61-7.46-14.49,5.01,1.31,15.23,23.11,13.48,28.59-4.5-3.66-3.23-9.6-6.02-14.11Z"/>
    <path d="M24.92,106.38c-1.85,4.63-3.54,8.96-5.33,13.54-1.85-4.68,4.28-19.88,10.18-25.03-.81,4.5-3.36,7.61-4.85,11.48Z"/>
  </g>
</svg>