<?xml version="1.0" encoding="UTF-8"?>
<svg id="Layer_2" data-name="Layer 2" xmlns="http://www.w3.org/2000/svg" viewBox="0 0 120 191.6">
  <style>path{fill:none;stroke:#000;stroke-width:0.9px;stroke-linecap:round;stroke-linejoin:round}</style><g id="Layer_1-2" data-name="Layer 1">
    <path d="M23.74,109.51c4.41-8.05,11.61-6.65,18.24-5.82,1.71-1.83,1.16-3.69,1.21-5.38.19-6.48.19-12.97.44-19.45.06-1.52-.11-2.5-1.57-3.2-2.63-1.26-2.32-3.24-.78-5.07,7.91-9.41,9.9-21.22,13.21-32.49,1.24-4.24,1.78-8.74,3.47-12.78,2.06-4.92,1.24-9.81,1.29-14.76.03-2.53-2.73-2.45-3.52-4.56,2.83-.75,3.52-3.43,4.93-6.01,1.93,2.29,2.78,5.09,5.89,5.93-6.13,4.49-4.12,10.6-3.06,15.52,3.53,16.46,8.81,32.42,17.34,47.09,1.3,2.24,1.33,3.84-.04,6.38-2.21,4.11-.5,8.94-.58,13.45-.02,1.32.24,2.64.33,3.96.36,4.9-.57,9.16,5.37,13.09,7.13,4.73,12.41,12.44,18.9,18.45,4.22,3.9,8.52,7.7,12.71,11.63,1.11,1.04,2.96,1.9,2.38,3.88-.62,2.12-2.81.96-4.37,1.72-.59,4.19.28,8.41.48,12.64.5,10.78-1,21.51-.8,32.29.07,3.79-1.93,5.09-5.59,5.08-12.08-.02-24.16-.05-36.23.34-13.87.45-27.6.04-41.21-3.16-6.86-1.61-13.92-2.47-20.93-3.37-4.47-.58-6.38-2.63-6.31-7.23.18-11.78.06-23.57.06-35.36-.09-.11-.17-.24-.28-.34-1.42-1.22-5.06.68-4.7-2.54.33-2.94,3.27-4.78,5.15-7.01,6.28-7.43,12.69-14.76,18.56-22.93M51.41,136.09c7.97-8.07,16.32-15.78,23.83-24.32,1.7-1.93,2.11-3.84,2.04-6.4-.25-8.59-3.02-17.04-1.46-25.74.46-2.57-.91-3.85-3.55-3.76-2.8.09-5.6.14-8.41.2-7.71.17-7.02-.42-7.02,7.4,0,11.07.01,22.13-.06,33.2,0,1.6.36,4.56-2.26,3.57-3.38-1.27-6.7-3.33-9.15-7.02,3.62-.82,4.82,2.96,8.31,2.65,0-12.41,0-24.77,0-37.13,0-2.6-1.83-2.59-3.69-2.61-2.32-.03-3.02,1.19-3.02,3.35.03,8.41,0,16.82-.08,25.23-.02,2.1-.01,4.27-2.23,6.46-.62-4.08-3.01-4.49-5.9-4.14-1.16.14-2.43.25-3.52-.08-3.47-1.03-5.5.62-7.37,3.27-4.18,5.89-8.55,11.65-13.39,17.04-3.09,3.44-6.06,6.98-9.24,10.65,11.32,0,22.17-1.28,33.1-.45,4.11.31,8.53,1.44,13.05-1.38M65.62,130.55c-2.18,2.2-4.17,4.64-6.57,6.55-3.36,2.67-4.43,5.89-4.04,10.06.5,5.42.71,10.88.83,16.32.15,6.78.06,13.56.14,20.34.02,1.37-.5,2.98,1.42,3.77,5.46,2.23,12.69-2.18,11.99-8.07-.86-7.21-.18-14.43-1.12-21.61-1.02-7.75-.75-15.39,4.99-21.64,5.85-6.38,14.03-7.12,19.48-1.35,3.36,3.56,5.52,8.01,5.61,13.13.08,5.01-.39,10.09.24,15.02.89,7.03-1.08,14.39,3.71,21.09,2.06,2.88,3.78,2.42,6.1,2.42,2.71,0,2.9-1.91,2.97-3.96.47-13.4.99-26.79.82-40.2-.03-2.6-.85-4.4-2.9-6.03-5.08-4.03-9.99-8.26-14.58-12.86-3.62-3.62-7.43-7.06-10.94-10.38-5.81,5.57-11.75,11.26-18.14,17.38M25.13,140.75c-4.43.04-8.85.09-13.28.13-1.7.02-3.47.03-3.27,2.45.86,10.46-.09,20.94.26,31.41.08,2.28.99,3.4,3.36,3.76,9.03,1.37,18.01,3.01,27.04,4.37,4.13.62,8.22,1.99,12.87,1.48,0-12.82-.18-25.35.1-37.86.1-4.57-2.01-5.57-5.84-5.56-6.78.02-13.57-.11-21.23-.18M65.58,42.29c-1.17-4.81-2.33-9.61-3.5-14.42-.27.03-.54.06-.82.09-1.55,13.7-3.09,27.4-4.63,41.04h20.14c-3.46-9.22-8.47-17.11-11.19-26.71M71.84,154.37c.79,8.74,1.22,17.5.54,26.42,4.11.67,7.68.58,10.63.08,0-9.24,0-18.16,0-27.07,0-2.52.49-5.06-3.55-4.99-7.52.14-7.52-.01-7.62,5.56M95.75,179.03c-.62-8.68-1.32-17.36-1.11-26.06.08-3.24-1.12-4.72-4.4-4.3-1.43.18-2.96-.33-4.18.57,0,8.78-.07,17.45.05,26.12.03,1.89-1.12,4.82,1.48,5.41,2.59.59,5.77,1.77,8.16-1.74M78.61,145.8h15.3c-.33-7.38-4.36-11.62-10-11.47-5.99.16-11.09,5.71-10.88,11.98,1.61-.16,3.2-.32,5.58-.51M71.42,187.78c14.02.53,25.41-.42,27.2-2.27-.2-.84-.83-1.27-1.59-1.27-8.08,0-16.17,0-24.25.11-1.9.03-2.53,1.26-1.36,3.42M51.23,61.03c-.96,2.72-3.24,4.87-3.68,7.99,3.74,1.35,5.8.51,6.21-3.55.51-5.09,1.22-10.17,1.84-15.25-.19-.04-.38-.09-.57-.13-1.19,3.43-2.39,6.86-3.81,10.94Z"/>
    <path d="M60.81,100.25c0-3.63,0-6.88-.02-10.12-.01-2.44.69-4.69,2.08-6.65,2.32-3.27,6.01-3.24,7.83.28,3.07,5.91,2.59,12.37,1.58,18.6-.49,3.01-3.79,2.75-6.3,2.6-2.73-.16-5.48-.45-5.16-4.71M66.14,85.41c-3.7,5.29-.55,11-1.54,16.39,3.77.92,5.27.05,4.69-3.63-.45-2.89-.41-5.86-.54-8.79-.07-1.66-.09-3.3-2.61-3.97Z"/>
    <path d="M107.74,184.92c-1.61-.1-3.03.26-4.06-1.36,2.08-1.96,4.2-1.76,6.45-.57.06,1.71-1.08,1.7-2.39,1.93Z"/>
    <path d="M23.83,161.76c-.01-2.03,0-3.64-.05-5.25-.08-3.42,1.75-4.55,4.95-4.62,3.47-.08,4.22,1.83,4.19,4.72-.04,3.51.08,7.03.01,10.54-.04,1.78.5,4.37-2.5,4.04-2.38-.26-5.69.47-6.24-3.33-.27-1.87-.26-3.79-.37-6.1M29.81,165.15c-.37-3.3.9-6.84-1.5-9.91-1.36,3.77-1.48,7.65-.44,11.34.44,1.56,1.55.4,1.93-1.43Z"/>
    <path d="M42.93,170.87c-5.18,2.87-8.65,1.02-8.75-4.29-.06-3.22.03-6.45-.06-9.67-.1-3.49,2.12-4.03,4.88-4.14,2.93-.11,4.44,1.15,4.37,4.12-.1,4.54-.22,9.08-.45,13.98M40.23,164.3c-.94-2.65,1.63-5.99-1.46-8.46-2.13,3.69-1.98,10.04.16,12.55,1.49-.72,1.36-2.09,1.31-4.09Z"/>
    <path d="M22.04,161.79c.02,1.45.14,2.49.02,3.5-.24,2.06,1.15,5.13-2.98,4.91-3.32-.17-6.67.02-6.18-5.03.31-3.2.18-6.46.01-9.68-.19-3.64,2.29-3.96,4.87-4.19,2.78-.25,4.06,1.29,4.17,3.9.09,2.05.06,4.1.09,6.58M17.27,155.18c-1.92,3.74-1.67,9.13.53,11.37,1.76-3,1.81-7.97-.53-11.37Z"/>
  </g>
</svg>