<?xml version="1.0" encoding="UTF-8"?>
<svg id="Layer_2" data-name="Layer 2" xmlns="http://www.w3.org/2000/svg" viewBox="0 0 98.31 59.73">
  <style>path,polyline,line,circle,rect,ellipse{fill:none;stroke:#000;stroke-width:0.8px;stroke-linecap:round;stroke-linejoin:round}</style><g id="Layer_1-2" data-name="Layer 1">
    <path d="M29.14,14.03c3.63-.03,6.01-1.38,8.48-3.67C50.22-1.36,73.66-3.33,88.49,5.44c9.79,5.79,14.41,22.9,3.55,32.28-8.36,7.21-18.15,9.47-28.61,9.9-3.88.16-6.91,1.28-10.13,3.44-11.08,7.46-23.24,10.67-36.52,7.37-8.33-2.07-14.43-7.03-16.33-15.66-2.02-9.18,2.97-15.58,9.86-20.62,5.5-4.03,11.53-7.16,18.83-8.12M87.47,24.27c3.2-4.7-.9-6.6-3.7-8.12-9.19-4.98-18.94-4.7-28.75-1.93-.98.28-1.96.7-2.38,2.44,6.89,3.74,10.55,10.01,11.37,18.13,9.1-1.03,17.47-2.32,23.47-10.51M53.23,21.18c-.34-.11-.72-.6-.95.1-.03.09.11.26.2.37,6.44,7.94,6.22,12.55-1.38,19.51-8.79,8.06-19.52,9.75-30.89,8.53-12.57-1.35-16.76-7.95-12.6-19.48-6.88,7.21-4.86,17.02,4.03,22.51,12.98,8.02,37.43.17,44.72-9.12,5.86-7.47,4.78-16.18-3.13-22.43M34.28,36.23c-.94-2.46-2.03-4.88-2.78-7.4-.52-1.74-1.38-2.62-3.13-2.15-6.87,1.83-12.92,4.87-16.29,11.62-1.54,3.09-.77,5.43,2.51,6.72,9.12,3.58,17.87,2.44,26.82-1.79-2.6-2.35-5.07-4.01-7.13-7M88.45,35.88c8-7.54,8.06-19.96.12-25.57,5.92,10.55,3.83,17.67-6.74,23.35-4.78,2.57-9.95,3.7-15.24,4.24-3.6.36-4.69,2.27-4.66,5.78,9.66.39,18.26-2.01,26.53-7.8M45.56,8.25c-13.02,5.7-15.3,21.84-3.77,30.32,3.89,2.86,5.76,2.36,8.33-2.26-1.67-.87-3.38-1.66-5-2.62-8.98-5.33-10.01-14.35-2.62-21.62,1.22-1.2,3.33-1.67,3.05-3.83M52.07,29.23c-2.78-1.85-5.71-3.14-9.3-2.87,1.57,3.3,4.31,5.67,7.44,6.42,3.09.74,3.85-.38,1.86-3.55M77.42,5.46c1.93.57,3.86,1.14,6.52,1.93-8.78-5.22-22.25-5.94-31.09-1.61,8.47-1.92,16.17-2.8,24.58-.33M46.42,13.26c-1.33,1.23-3.08,2.13-3.24,4.35,2.72-3.05,6.5-4.58,9.96-6.97-.64-.21-.96-.44-1.14-.35-1.71.84-3.39,1.73-5.58,2.97Z"/>
  </g>
</svg>