<?xml version="1.0" encoding="UTF-8"?>
<svg id="Layer_2" data-name="Layer 2" xmlns="http://www.w3.org/2000/svg" viewBox="0 0 154.07 107.43">
  <style>path,polyline,line,circle,rect,ellipse{fill:none;stroke:#000;stroke-width:0.8px;stroke-linecap:round;stroke-linejoin:round}</style><g id="Layer_1-2" data-name="Layer 1">
    <path d="M66.65,6.56c2.07,1.69,3.75,3.41,5.74,4.64,2.68,1.65,5.52,2.22,8.79,1.1,6.97-2.39,9.4-1.31,13.36,4.66,6.27,9.45,13.64,17.93,22.42,25.14,6.81,5.6,15.43,7.97,22.68,12.81,4.33,2.89,8.43,5.91,11.75,9.95,4.99,6.09,2.77,13.43-4.89,15.41-9.57,2.48-19.33,1.69-29.05,1.33-4.69-.17-9.38-.56-14.36-1.27,2.32,2.28,4.64,4.57,6.96,6.85,2.34,2.31,4.29,4.83,5.04,8.15,1.18,5.24-1.17,9.32-6.29,10.91-6.7,2.08-13.53.88-20.22.49-12.68-.73-25.16-2.97-36.99-7.93-6.54-2.75-11.65-7.4-16.33-12.59-2.66-2.96-5.39-5.85-8.18-8.69-2.26-2.3-4.46-4.86-8.3-2.59-.68.4-2.1.03-2.95-.42-5.24-2.78-9.98-6.27-14.2-10.44-1.1-1.08-1.93-2.48-1.53-3.98,2.24-8.33-.13-17,2.27-25.4,2.37-8.26,6.18-15.89,9.45-23.74,1.71-4.1,5.66-4.88,10.74-3.1,5.46,1.92,9.29,6.12,13.38,9.93,1.81,1.69,3.27,3.8,5.76,4.84,1.57-1.48,1.47-3.44,1.69-5.29.26-2.19.41-4.41.83-6.57C46.4-.22,53.38-3.02,62.55,3.39c1.33.93,2.57,1.99,4.1,3.17M14.4,61.06c8.94,6.23,17.92,12.38,26.06,19.73,8.42,7.61,18.71,11.66,29.84,13.47,7.99,1.3,16.03,2.33,24.03,3.58,3.52.55,7.05.85,10.58.49,4.45-.45,5.44-2.48,2.98-6.15-2.49-3.71-5.74-6.82-9.31-9.39-12.42-8.97-22.7-20.02-31.87-32.05-2.36.15-3.41,1.24-3.37,3.42.04,1.72-.76,3.09-1.9,4.34-9.61,10.59-21.94,12.14-33.78,4.17-1.71-1.15-3.29-2.49-4.89-3.8-6.31-5.2-12.11-10.93-17.34-17.9-1.75,8.24-.18,14.32,6.81,18.23.63.35,1.12.95,2.14,1.86M83.23,49.25c-5.64-1.54-10.82-4.25-16.61-6.92.48.97.65,1.36.84,1.72,5.48,10.17,16.1,14.33,24.66,20.84,4.59,3.5,10.19,5.16,15.94,6.21,11.98,2.19,24.08,1.73,36.16,1.86,2.27.03,5.16.49,6.03-2.43.8-2.66-1.45-4.32-3.16-5.89-5.83-5.3-12.41-9.44-19.58-12.7-5.36-2.43-11.05-4.51-15.11-8.97-3.08-3.39-5.34-3.56-8.57-.14-5.34,5.65-11.75,8.91-20.6,6.41M53.6,59.5c2.03-1.98,5.72-2.21,6.46-5.72-2.01-1.11-4.26,1.98-5.73-.78,0-2.46,3.27-2.34,3.66-4.42-1.82-2.01-4.57,1.47-5.98-1.31-.32-2.71,3.93-2.26,3.45-4.97-1.82-2.56-4.87,2.06-6.51-1.16.21-2.38,3.54-1.68,3.74-4.06-1.75-2.62-5.22,1.89-6.78-1.48.46-2.28,3.42-1.75,4.07-3.78-1.06-2.43-2.73-3.22-5.32-2.31-2.64.92-5.33,1.68-8.03,2.42-11.09,3.08-18.15-.16-23.02-10.49-.34-.72-.35-1.79-1.68-1.93-1.94,4.54-4.56,8.83-5.68,13.77-.3,1.35-.6,2.59.46,3.72,6.83,7.3,13.1,15.14,21.23,21.17,8.09,6.01,16.26,8.17,25.65,1.32M58.74,20.55c-5.02-1.84-7.82-6.1-10.88-11.18-1.08,5.73-1.68,10.33-1.42,15.23.91.07,1.68.33,2.32.14,5.6-1.63,7.6-.06,10.63,5.84.88,1.7,1.74,3.42,2.68,5.08.94,1.66,1.74,3.76,3.75,4.14,6.14,1.18,11.52,4.51,17.55,5.94,6.85,1.62,12.82-.14,17.84-5.08.76-.75,1.48-1.57.64-2.67-.59-.77-1.38-.94-2.35-.61-1.31.44-2.73,1.45-3.53.29-1.24-2.86,2.96-2.88,1.79-5.27-1.86-1.4-3.61,1.58-5.33.09-1.41-2.5,3.04-2.86,1.78-5.32-1.65-1.01-3.69,1.67-5.16-.32-.9-2.55,3-2.41,2.45-4.66-1.94-2.15-4.86,1.95-6.57-.86.03-2.19,2.8-1.94,2.86-3.89-1.31-2.28-3.16-2.8-5.59-1.86-2.6,1.01-5.25,1.93-7.88,2.88-4.83,1.74-9.56,4.1-15.58,2.1M94.93,102.8h7.84c0-.07,0-.14,0-.21-4.58-.33-9.15-.67-13.73-1-.01.1-.02.19-.03.29,1.72.29,3.44.58,5.91.91M82.49,101.14c.13-.15.88.31.4-.41-.06-.08-.28-.05-.42-.07-4.04-.6-8.07-1.19-12.11-1.79,3.78,1.34,7.65,2.07,12.14,2.26Z"/>
  </g>
</svg>