<?xml version="1.0" encoding="UTF-8"?>
<svg id="Layer_2" data-name="Layer 2" xmlns="http://www.w3.org/2000/svg" viewBox="0 0 139.69 134.67">
  <style>path,polyline,line,circle,rect,ellipse{fill:none;stroke:#000;stroke-width:0.8px;stroke-linecap:round;stroke-linejoin:round}</style><g id="Layer_1-2" data-name="Layer 1">
    <path d="M23.25,100.22c.84-2.1,1.35-3.99,2.29-5.64,3.06-5.35,3.83-10.19-.45-15.67-2.6-3.32-2.45-8.01-1.76-12.4,1.94-12.28,7.88-23.11,12.36-34.47,2.05-5.2,4.83-10.13,6.23-15.59.7-2.71,2.17-3.48,4.9-2.67,7.24,2.16,14.09,5.24,20.99,8.23,2.31,1,2.82,2.49,2.07,4.96-3.86,12.69-7.32,25.5-11.39,38.12-3.41,10.57-8.57,19.91-20.72,22.65-1.51.34-2.11,1.52-2.65,2.74-4.02,9.2-6.68,18.89-10.04,28.33-.7,1.96.22,2.92,1.85,3.84,2.82,1.58,5.68,3.19,7.84,5.7,1.05,1.22,2.32,2.53,1.4,4.32-.84,1.62-2.49,1.98-4.17,1.96-6.16-.07-11.89-2.06-17.51-4.28-4.25-1.69-8.31-3.87-11.77-6.93-1.51-1.33-3.44-2.84-2.46-5.2.98-2.34,3.29-2.2,5.38-1.91,2.77.39,5.57.72,8.26,1.42,2.21.57,3.34-.09,4.02-2.13,1.69-5.03,3.45-10.04,5.31-15.38M36.95,83.82c4.87.07,8.39-2.45,11.15-6.12,6.31-8.38,9.4-18.11,11.72-28.24-.66-.21-1.06-.47-1.45-.45-7.8.55-15.56.7-23.06-2.07-1.71-.63-2.41.57-2.96,1.83-2.97,6.78-4.98,13.83-5.39,21.24-.3,5.54,3.1,12.91,9.99,13.81M57.13,40.62c3.44,1.59,5.41.62,6.27-3.19.75-3.29,1.94-6.47,2.96-9.69.43-1.34.78-2.65-.9-3.35-6.6-2.75-13.06-5.92-20.29-7.46-3.09,7.71-6.05,15.12-9.3,23.24,6.41-1.7,12.83,1.64,18.8-3.92-.02,2.14-.88,4.58,2.45,4.37M27.33,126.89c-2.25-.97-4.49-1.94-7.1-3.07,2.02-6.61,4-13.11,5.97-19.6-2.4,4.92-4.28,10.01-6.21,15.08-.89,2.33-1.88,3.64-4.87,2.07-2.8-1.47-6.09-2.36-9.69-1.2,5.81,5.87,19.34,10.98,25.25,9.71-.58-1.28-1.76-1.92-3.36-3M39.39,44.47c5.78,1.62,11.57,1.54,17.85.31-5.04-1.88-14-2.11-17.85-.31Z"/>
    <path d="M78.85,51.97c-2.19-9.23-4.22-18.13-6.33-27.02-.46-1.93.18-3.12,1.92-3.9,7.16-3.19,14.47-5.91,22.18-7.46,1.98-.4,3.31-.18,4,2.15,3.58,11.9,9.58,22.84,13.66,34.55,3.23,9.28,5.98,18.61,2.11,28.42-.22.55-.29,1.26-.68,1.62-4.89,4.55-2.95,9.59-1.14,14.63,2.34,6.52,4.79,13,6.97,19.58,1.12,3.39,3.17,4.4,6.4,3.46,2.61-.76,5.26-.67,7.91-.58,1.51.05,3.03.23,3.64,1.93.59,1.65-.34,2.91-1.38,3.95-2.53,2.54-5.63,4.33-8.85,5.79-6.21,2.83-12.83,4.37-19.55,5.4-2.55.39-5.43.34-6.46-2.49-.99-2.73,1.48-4.19,3.38-5.57,1.07-.77,2.25-1.42,3.42-2.03,6.66-3.51,6.48-1.68,3.71-9.82-2.62-7.68-5.25-15.35-7.76-23.07-.74-2.25-1.71-3.58-4.32-4.22-7.77-1.92-12.5-7.44-15.59-14.54-2.89-6.64-5.19-13.48-7.25-20.79M113.96,76.7c3.12-13.89-2.44-25.88-7.9-38.43-8.19,3.98-16.03,7.17-25.17,7.28,2.04,8.38,4.6,15.84,7.59,23.18,1.92,4.71,4.19,9.06,8.41,12.19,6.72,4.99,12.74,3.75,17.07-4.22M77.82,33.15c.56,1.49.43,3.25,2.08,4.84,4.39-2.55,10.5-1.89,13.71-7.59,2.82,2.75,5.87,2,9.43,1.61-1.32-5.24-2.59-10.92-6.01-14.08-2.51-2.31-7.67,1.01-11.54,2.28-.56.18-1.12.38-1.66.61-9.56,4.1-8.55,1.59-6,12.33M132.65,121.02c-3.47.13-7,.01-9.72,2.1-2.25-.72-2.13-3.02-4.16-4.48,1.46,3.84,1.15,5.96-3.12,6.71-2.48.44-5.44,1.72-7.39,5.38,9.36-1.18,17.45-3.31,24.7-8.05.45-.29,1.43-.93-.3-1.66M100.58,36.82c.26-.29.53-.59.79-.88-.11-.08-.22-.24-.32-.24-6.31.41-12.38,1.65-17.77,5.1,6.12.79,11.6-.94,17.3-3.98Z"/>
    <path d="M82.82,2.87c2.09-.78,3.21.22,2.18,1.66-2.05,2.86-3.77,6.15-7.83,8.71.42-4.86,3.5-7.23,5.65-10.37Z"/>
    <path d="M59.73,5.74c-1.47-1.6-3.06-2.78-2.94-5.74,3.57,1,5.04,3.35,6.26,6.05-1.49,1.3-2.26.44-3.32-.32Z"/>
    <path d="M68.98,12.7c1.19,1.44,2.25,2.67,1.17,4.67-2.53-.77-3.91-2.5-3.8-4.73.07-1.41,1.54-.65,2.64.06Z"/>
    <path d="M73.39,3.41c0,1.58.33,3-1.57,3.65-1.64-1.99-1.42-4-.44-6.09,1.79,0,1.67,1.22,2.01,2.44Z"/>
  </g>
</svg>